<?xml version="1.0" encoding="UTF-8" standalone="no"?>
<!DOCTYPE svg PUBLIC "-//W3C//DTD SVG 1.1//EN"
 "http://www.w3.org/Graphics/SVG/1.1/DTD/svg11.dtd">
<!-- Generated by graphviz version 12.1.2 (20240928.0832)
 -->
<!-- Title: public.vehicles Pages: 1 -->
<svg width="933pt" height="1746pt"
 viewBox="0.00 0.00 933.44 1745.60" xmlns="http://www.w3.org/2000/svg" xmlns:xlink="http://www.w3.org/1999/xlink">
<g id="graph0" class="graph" transform="scale(1 1) rotate(0) translate(4 1741.6)">
<title>public.vehicles</title>
<polygon fill="white" stroke="none" points="-4,4 -4,-1741.6 929.44,-1741.6 929.44,4 -4,4"/>
<!-- public.vehicles -->
<g id="node1" class="node">
<title>public.vehicles</title>
<polygon fill="#efefef" stroke="none" points="282.61,-1220.6 282.61,-1256.2 566.6,-1256.2 566.6,-1220.6 282.61,-1220.6"/>
<polygon fill="none" stroke="black" points="282.61,-1220.6 282.61,-1256.2 566.6,-1256.2 566.6,-1220.6 282.61,-1220.6"/>
<text text-anchor="start" x="308.13" y="-1234" font-family="Arial Bold" font-size="18.00">public.vehicles</text>
<text text-anchor="start" x="416.59" y="-1234" font-family="Arial" font-size="14.00">    </text>
<text text-anchor="start" x="447.71" y="-1234" font-family="Arial" font-size="14.00" fill="#666666">[BASE TABLE]</text>
<polygon fill="none" stroke="black" points="282.61,-1189.8 282.61,-1220.6 566.6,-1220.6 566.6,-1189.8 282.61,-1189.8"/>
<text text-anchor="start" x="289.61" y="-1202" font-family="Arial" font-size="14.00">id </text>
<text text-anchor="start" x="304.39" y="-1202" font-family="Arial" font-size="14.00" fill="#666666">[uuid]</text>
<polygon fill="none" stroke="black" points="282.61,-1159 282.61,-1189.8 566.6,-1189.8 566.6,-1159 282.61,-1159"/>
<text text-anchor="start" x="289.61" y="-1171.2" font-family="Arial" font-size="14.00">ownerId </text>
<text text-anchor="start" x="343.3" y="-1171.2" font-family="Arial" font-size="14.00" fill="#666666">[uuid]</text>
<polygon fill="none" stroke="black" points="282.61,-1128.2 282.61,-1159 566.6,-1159 566.6,-1128.2 282.61,-1128.2"/>
<text text-anchor="start" x="289.61" y="-1140.4" font-family="Arial" font-size="14.00">brand </text>
<text text-anchor="start" x="329.3" y="-1140.4" font-family="Arial" font-size="14.00" fill="#666666">[varchar]</text>
<polygon fill="none" stroke="black" points="282.61,-1097.4 282.61,-1128.2 566.6,-1128.2 566.6,-1097.4 282.61,-1097.4"/>
<text text-anchor="start" x="289.61" y="-1109.6" font-family="Arial" font-size="14.00">model </text>
<text text-anchor="start" x="331.63" y="-1109.6" font-family="Arial" font-size="14.00" fill="#666666">[varchar]</text>
<polygon fill="none" stroke="black" points="282.61,-1066.6 282.61,-1097.4 566.6,-1097.4 566.6,-1066.6 282.61,-1066.6"/>
<text text-anchor="start" x="289.61" y="-1078.8" font-family="Arial" font-size="14.00">year </text>
<text text-anchor="start" x="320.73" y="-1078.8" font-family="Arial" font-size="14.00" fill="#666666">[integer]</text>
<polygon fill="none" stroke="black" points="282.61,-1035.8 282.61,-1066.6 566.6,-1066.6 566.6,-1035.8 282.61,-1035.8"/>
<text text-anchor="start" x="289.61" y="-1048" font-family="Arial" font-size="14.00">vin </text>
<text text-anchor="start" x="311.39" y="-1048" font-family="Arial" font-size="14.00" fill="#666666">[varchar]</text>
<polygon fill="none" stroke="black" points="282.61,-1005 282.61,-1035.8 566.6,-1035.8 566.6,-1005 282.61,-1005"/>
<text text-anchor="start" x="289.61" y="-1017.2" font-family="Arial" font-size="14.00">dailyPrice </text>
<text text-anchor="start" x="354.18" y="-1017.2" font-family="Arial" font-size="14.00" fill="#666666">[numeric(10,2)]</text>
<polygon fill="none" stroke="black" points="282.61,-974.2 282.61,-1005 566.6,-1005 566.6,-974.2 282.61,-974.2"/>
<text text-anchor="start" x="289.61" y="-986.4" font-family="Arial" font-size="14.00">engineType </text>
<text text-anchor="start" x="366.66" y="-986.4" font-family="Arial" font-size="14.00" fill="#666666">[varchar]</text>
<polygon fill="none" stroke="black" points="282.61,-943.4 282.61,-974.2 566.6,-974.2 566.6,-943.4 282.61,-943.4"/>
<text text-anchor="start" x="289.61" y="-955.6" font-family="Arial" font-size="14.00">fuelType </text>
<text text-anchor="start" x="347.19" y="-955.6" font-family="Arial" font-size="14.00" fill="#666666">[vehicles_fueltype_enum]</text>
<polygon fill="none" stroke="black" points="282.61,-912.6 282.61,-943.4 566.6,-943.4 566.6,-912.6 282.61,-912.6"/>
<text text-anchor="start" x="289.61" y="-924.8" font-family="Arial" font-size="14.00">transmission </text>
<text text-anchor="start" x="372.07" y="-924.8" font-family="Arial" font-size="14.00" fill="#666666">[vehicles_transmission_enum]</text>
<polygon fill="none" stroke="black" points="282.61,-881.8 282.61,-912.6 566.6,-912.6 566.6,-881.8 282.61,-881.8"/>
<text text-anchor="start" x="289.61" y="-894" font-family="Arial" font-size="14.00">latitude </text>
<text text-anchor="start" x="338.64" y="-894" font-family="Arial" font-size="14.00" fill="#666666">[numeric(9,6)]</text>
<polygon fill="none" stroke="black" points="282.61,-851 282.61,-881.8 566.6,-881.8 566.6,-851 282.61,-851"/>
<text text-anchor="start" x="289.61" y="-863.2" font-family="Arial" font-size="14.00">longitude </text>
<text text-anchor="start" x="350.32" y="-863.2" font-family="Arial" font-size="14.00" fill="#666666">[numeric(9,6)]</text>
<polygon fill="none" stroke="black" points="282.61,-820.2 282.61,-851 566.6,-851 566.6,-820.2 282.61,-820.2"/>
<text text-anchor="start" x="289.61" y="-832.4" font-family="Arial" font-size="14.00">minRentDays </text>
<text text-anchor="start" x="377.52" y="-832.4" font-family="Arial" font-size="14.00" fill="#666666">[integer]</text>
<polygon fill="none" stroke="black" points="282.61,-789.4 282.61,-820.2 566.6,-820.2 566.6,-789.4 282.61,-789.4"/>
<text text-anchor="start" x="289.61" y="-801.6" font-family="Arial" font-size="14.00">maxRentDays </text>
<text text-anchor="start" x="381.41" y="-801.6" font-family="Arial" font-size="14.00" fill="#666666">[integer]</text>
<polygon fill="none" stroke="black" points="282.61,-758.6 282.61,-789.4 566.6,-789.4 566.6,-758.6 282.61,-758.6"/>
<text text-anchor="start" x="289.61" y="-770.8" font-family="Arial" font-size="14.00">isAvailable </text>
<text text-anchor="start" x="360.42" y="-770.8" font-family="Arial" font-size="14.00" fill="#666666">[boolean]</text>
<polygon fill="none" stroke="black" points="282.61,-727.8 282.61,-758.6 566.6,-758.6 566.6,-727.8 282.61,-727.8"/>
<text text-anchor="start" x="289.61" y="-740" font-family="Arial" font-size="14.00">images </text>
<text text-anchor="start" x="338.63" y="-740" font-family="Arial" font-size="14.00" fill="#666666">[text[]]</text>
<polygon fill="none" stroke="black" points="282.61,-697 282.61,-727.8 566.6,-727.8 566.6,-697 282.61,-697"/>
<text text-anchor="start" x="289.61" y="-709.2" font-family="Arial" font-size="14.00">createdAt </text>
<text text-anchor="start" x="353.42" y="-709.2" font-family="Arial" font-size="14.00" fill="#666666">[timestamp without time zone]</text>
<polygon fill="none" stroke="black" points="282.61,-666.2 282.61,-697 566.6,-697 566.6,-666.2 282.61,-666.2"/>
<text text-anchor="start" x="289.61" y="-678.4" font-family="Arial" font-size="14.00">updatedAt </text>
<text text-anchor="start" x="357.33" y="-678.4" font-family="Arial" font-size="14.00" fill="#666666">[timestamp without time zone]</text>
<polygon fill="none" stroke="black" points="282.61,-635.4 282.61,-666.2 566.6,-666.2 566.6,-635.4 282.61,-635.4"/>
<text text-anchor="start" x="289.61" y="-647.6" font-family="Arial" font-size="14.00">deletedAt </text>
<text text-anchor="start" x="352.65" y="-647.6" font-family="Arial" font-size="14.00" fill="#666666">[timestamp without time zone]</text>
<polygon fill="none" stroke="black" stroke-width="3" points="281.11,-633.9 281.11,-1257.7 568.1,-1257.7 568.1,-633.9 281.11,-633.9"/>
</g>
<!-- public.users -->
<g id="node4" class="node">
<title>public.users</title>
<polygon fill="#efefef" stroke="none" points="282.2,-474.4 282.2,-510 567.01,-510 567.01,-474.4 282.2,-474.4"/>
<polygon fill="none" stroke="black" points="282.2,-474.4 282.2,-510 567.01,-510 567.01,-474.4 282.2,-474.4"/>
<text text-anchor="start" x="319.12" y="-487.8" font-family="Arial Bold" font-size="18.00">public.users</text>
<text text-anchor="start" x="405.6" y="-487.8" font-family="Arial" font-size="14.00">    </text>
<text text-anchor="start" x="436.72" y="-487.8" font-family="Arial" font-size="14.00" fill="#666666">[BASE TABLE]</text>
<polygon fill="none" stroke="black" points="282.2,-443.6 282.2,-474.4 567.01,-474.4 567.01,-443.6 282.2,-443.6"/>
<text text-anchor="start" x="289.2" y="-455.8" font-family="Arial" font-size="14.00">id </text>
<text text-anchor="start" x="303.99" y="-455.8" font-family="Arial" font-size="14.00" fill="#666666">[uuid]</text>
<polygon fill="none" stroke="black" points="282.2,-412.8 282.2,-443.6 567.01,-443.6 567.01,-412.8 282.2,-412.8"/>
<text text-anchor="start" x="289.2" y="-425" font-family="Arial" font-size="14.00">email </text>
<text text-anchor="start" x="326.55" y="-425" font-family="Arial" font-size="14.00" fill="#666666">[varchar]</text>
<polygon fill="none" stroke="black" points="282.2,-382 282.2,-412.8 567.01,-412.8 567.01,-382 282.2,-382"/>
<text text-anchor="start" x="289.2" y="-394.2" font-family="Arial" font-size="14.00">password </text>
<text text-anchor="start" x="353.01" y="-394.2" font-family="Arial" font-size="14.00" fill="#666666">[varchar]</text>
<polygon fill="none" stroke="black" points="282.2,-351.2 282.2,-382 567.01,-382 567.01,-351.2 282.2,-351.2"/>
<text text-anchor="start" x="289.2" y="-363.4" font-family="Arial" font-size="14.00">fullName </text>
<text text-anchor="start" x="348.33" y="-363.4" font-family="Arial" font-size="14.00" fill="#666666">[varchar]</text>
<polygon fill="none" stroke="black" points="282.2,-320.4 282.2,-351.2 567.01,-351.2 567.01,-320.4 282.2,-320.4"/>
<text text-anchor="start" x="289.2" y="-332.6" font-family="Arial" font-size="14.00">securityQuestion </text>
<text text-anchor="start" x="397.36" y="-332.6" font-family="Arial" font-size="14.00" fill="#666666">[varchar]</text>
<polygon fill="none" stroke="black" points="282.2,-289.6 282.2,-320.4 567.01,-320.4 567.01,-289.6 282.2,-289.6"/>
<text text-anchor="start" x="289.2" y="-301.8" font-family="Arial" font-size="14.00">securityAnswerHash </text>
<text text-anchor="start" x="420.69" y="-301.8" font-family="Arial" font-size="14.00" fill="#666666">[varchar]</text>
<polygon fill="none" stroke="black" points="282.2,-258.8 282.2,-289.6 567.01,-289.6 567.01,-258.8 282.2,-258.8"/>
<text text-anchor="start" x="289.2" y="-271" font-family="Arial" font-size="14.00">role </text>
<text text-anchor="start" x="316.44" y="-271" font-family="Arial" font-size="14.00" fill="#666666">[users_role_enum]</text>
<polygon fill="none" stroke="black" points="282.2,-228 282.2,-258.8 567.01,-258.8 567.01,-228 282.2,-228"/>
<text text-anchor="start" x="289.2" y="-240.2" font-family="Arial" font-size="14.00">isActive </text>
<text text-anchor="start" x="341.33" y="-240.2" font-family="Arial" font-size="14.00" fill="#666666">[boolean]</text>
<polygon fill="none" stroke="black" points="282.2,-197.2 282.2,-228 567.01,-228 567.01,-197.2 282.2,-197.2"/>
<text text-anchor="start" x="289.2" y="-209.4" font-family="Arial" font-size="14.00">suspendedAt </text>
<text text-anchor="start" x="374.82" y="-209.4" font-family="Arial" font-size="14.00" fill="#666666">[timestamp without time zone]</text>
<polygon fill="none" stroke="black" points="282.2,-166.4 282.2,-197.2 567.01,-197.2 567.01,-166.4 282.2,-166.4"/>
<text text-anchor="start" x="289.2" y="-178.6" font-family="Arial" font-size="14.00">isVerified </text>
<text text-anchor="start" x="350.67" y="-178.6" font-family="Arial" font-size="14.00" fill="#666666">[boolean]</text>
<polygon fill="none" stroke="black" points="282.2,-135.6 282.2,-166.4 567.01,-166.4 567.01,-135.6 282.2,-135.6"/>
<text text-anchor="start" x="289.2" y="-147.8" font-family="Arial" font-size="14.00">profileImage </text>
<text text-anchor="start" x="370.13" y="-147.8" font-family="Arial" font-size="14.00" fill="#666666">[varchar]</text>
<polygon fill="none" stroke="black" points="282.2,-104.8 282.2,-135.6 567.01,-135.6 567.01,-104.8 282.2,-104.8"/>
<text text-anchor="start" x="289.2" y="-117" font-family="Arial" font-size="14.00">createdAt </text>
<text text-anchor="start" x="353.02" y="-117" font-family="Arial" font-size="14.00" fill="#666666">[timestamp without time zone]</text>
<polygon fill="none" stroke="black" points="282.2,-74 282.2,-104.8 567.01,-104.8 567.01,-74 282.2,-74"/>
<text text-anchor="start" x="289.2" y="-86.2" font-family="Arial" font-size="14.00">updatedAt </text>
<text text-anchor="start" x="356.93" y="-86.2" font-family="Arial" font-size="14.00" fill="#666666">[timestamp without time zone]</text>
<polygon fill="none" stroke="black" points="282.2,-43.2 282.2,-74 567.01,-74 567.01,-43.2 282.2,-43.2"/>
<text text-anchor="start" x="289.2" y="-55.4" font-family="Arial" font-size="14.00">deletedAt </text>
<text text-anchor="start" x="352.25" y="-55.4" font-family="Arial" font-size="14.00" fill="#666666">[timestamp without time zone]</text>
</g>
<!-- public.vehicles&#45;&gt;public.users -->
<g id="edge3" class="edge">
<title>public.vehicles:ownerId&#45;&gt;public.users:id</title>
<path fill="none" stroke="black" d="M577.74,-1174.15C885.53,-1159.11 882.55,-459 568.01,-459"/>
<polygon fill="black" stroke="black" points="577.94,-1174.15 567.83,-1169.89 572.6,-1174.28 568.27,-1174.38 568.27,-1174.38 568.27,-1174.38 572.6,-1174.28 568.05,-1178.89 577.94,-1174.15"/>
<text text-anchor="start" x="574.6" y="-1184.4" font-family="Arial" font-size="10.00">FOREIGN KEY (&quot;ownerId&quot;) REFERENCES users(id) ON DELETE CASCADE</text>
</g>
<!-- public.bookings -->
<g id="node2" class="node">
<title>public.bookings</title>
<polygon fill="#efefef" stroke="none" points="107.15,-1658.8 107.15,-1694.4 374.06,-1694.4 374.06,-1658.8 107.15,-1658.8"/>
<polygon fill="none" stroke="black" points="107.15,-1658.8 107.15,-1694.4 374.06,-1694.4 374.06,-1658.8 107.15,-1658.8"/>
<text text-anchor="start" x="120.61" y="-1672.2" font-family="Arial Bold" font-size="18.00">public.bookings</text>
<text text-anchor="start" x="236.11" y="-1672.2" font-family="Arial" font-size="14.00">    </text>
<text text-anchor="start" x="267.23" y="-1672.2" font-family="Arial" font-size="14.00" fill="#666666">[BASE TABLE]</text>
<polygon fill="none" stroke="black" points="107.15,-1628 107.15,-1658.8 374.06,-1658.8 374.06,-1628 107.15,-1628"/>
<text text-anchor="start" x="114.15" y="-1640.2" font-family="Arial" font-size="14.00">id </text>
<text text-anchor="start" x="128.94" y="-1640.2" font-family="Arial" font-size="14.00" fill="#666666">[uuid]</text>
<polygon fill="none" stroke="black" points="107.15,-1597.2 107.15,-1628 374.06,-1628 374.06,-1597.2 107.15,-1597.2"/>
<text text-anchor="start" x="114.15" y="-1609.4" font-family="Arial" font-size="14.00">customerId </text>
<text text-anchor="start" x="187.29" y="-1609.4" font-family="Arial" font-size="14.00" fill="#666666">[uuid]</text>
<polygon fill="none" stroke="black" points="107.15,-1566.4 107.15,-1597.2 374.06,-1597.2 374.06,-1566.4 107.15,-1566.4"/>
<text text-anchor="start" x="114.15" y="-1578.6" font-family="Arial" font-size="14.00">vehicleId </text>
<text text-anchor="start" x="173.29" y="-1578.6" font-family="Arial" font-size="14.00" fill="#666666">[uuid]</text>
<polygon fill="none" stroke="black" points="107.15,-1535.6 107.15,-1566.4 374.06,-1566.4 374.06,-1535.6 107.15,-1535.6"/>
<text text-anchor="start" x="114.15" y="-1547.8" font-family="Arial" font-size="14.00">startDate </text>
<text text-anchor="start" x="174.84" y="-1547.8" font-family="Arial" font-size="14.00" fill="#666666">[timestamp without time zone]</text>
<polygon fill="none" stroke="black" points="107.15,-1504.8 107.15,-1535.6 374.06,-1535.6 374.06,-1504.8 107.15,-1504.8"/>
<text text-anchor="start" x="114.15" y="-1517" font-family="Arial" font-size="14.00">endDate </text>
<text text-anchor="start" x="170.97" y="-1517" font-family="Arial" font-size="14.00" fill="#666666">[timestamp without time zone]</text>
<polygon fill="none" stroke="black" points="107.15,-1474 107.15,-1504.8 374.06,-1504.8 374.06,-1474 107.15,-1474"/>
<text text-anchor="start" x="114.15" y="-1486.2" font-family="Arial" font-size="14.00">totalPrice </text>
<text text-anchor="start" x="176.4" y="-1486.2" font-family="Arial" font-size="14.00" fill="#666666">[numeric(10,2)]</text>
<polygon fill="none" stroke="black" points="107.15,-1443.2 107.15,-1474 374.06,-1474 374.06,-1443.2 107.15,-1443.2"/>
<text text-anchor="start" x="114.15" y="-1455.4" font-family="Arial" font-size="14.00">status </text>
<text text-anchor="start" x="155.39" y="-1455.4" font-family="Arial" font-size="14.00" fill="#666666">[bookings_status_enum]</text>
<polygon fill="none" stroke="black" points="107.15,-1412.4 107.15,-1443.2 374.06,-1443.2 374.06,-1412.4 107.15,-1412.4"/>
<text text-anchor="start" x="114.15" y="-1424.6" font-family="Arial" font-size="14.00">createdAt </text>
<text text-anchor="start" x="177.96" y="-1424.6" font-family="Arial" font-size="14.00" fill="#666666">[timestamp without time zone]</text>
<polygon fill="none" stroke="black" points="107.15,-1381.6 107.15,-1412.4 374.06,-1412.4 374.06,-1381.6 107.15,-1381.6"/>
<text text-anchor="start" x="114.15" y="-1393.8" font-family="Arial" font-size="14.00">updatedAt </text>
<text text-anchor="start" x="181.87" y="-1393.8" font-family="Arial" font-size="14.00" fill="#666666">[timestamp without time zone]</text>
</g>
<!-- public.bookings&#45;&gt;public.vehicles -->
<g id="edge1" class="edge">
<title>public.bookings:vehicleId&#45;&gt;public.vehicles:id</title>
<path fill="none" stroke="black" d="M385.07,-1579.13C425.76,-1555.35 402.51,-1379.99 374.06,-1338.4 349.4,-1302.35 307.38,-1338.38 282.61,-1302.4 258.1,-1266.82 238.4,-1205.2 281.61,-1205.2"/>
<polygon fill="black" stroke="black" points="385.04,-1579.13 374.22,-1577.37 379.89,-1580.51 375.71,-1581.63 375.71,-1581.63 375.71,-1581.63 379.89,-1580.51 376.54,-1586.06 385.04,-1579.13"/>
<text text-anchor="start" x="7" y="-1591.8" font-family="Arial" font-size="10.00">FOREIGN KEY (&quot;vehicleId&quot;) REFERENCES vehicles(id) ON DELETE RESTRICT</text>
</g>
<!-- public.reviews -->
<g id="node3" class="node">
<title>public.reviews</title>
<polygon fill="#efefef" stroke="none" points="478.11,-1612.6 478.11,-1648.2 741.1,-1648.2 741.1,-1612.6 478.11,-1612.6"/>
<polygon fill="none" stroke="black" points="478.11,-1612.6 478.11,-1648.2 741.1,-1648.2 741.1,-1612.6 478.11,-1612.6"/>
<text text-anchor="start" x="494.63" y="-1626" font-family="Arial Bold" font-size="18.00">public.reviews</text>
<text text-anchor="start" x="600.09" y="-1626" font-family="Arial" font-size="14.00">    </text>
<text text-anchor="start" x="631.21" y="-1626" font-family="Arial" font-size="14.00" fill="#666666">[BASE TABLE]</text>
<polygon fill="none" stroke="black" points="478.11,-1581.8 478.11,-1612.6 741.1,-1612.6 741.1,-1581.8 478.11,-1581.8"/>
<text text-anchor="start" x="485.11" y="-1594" font-family="Arial" font-size="14.00">id </text>
<text text-anchor="start" x="499.89" y="-1594" font-family="Arial" font-size="14.00" fill="#666666">[uuid]</text>
<polygon fill="none" stroke="black" points="478.11,-1551 478.11,-1581.8 741.1,-1581.8 741.1,-1551 478.11,-1551"/>
<text text-anchor="start" x="485.11" y="-1563.2" font-family="Arial" font-size="14.00">rating </text>
<text text-anchor="start" x="524.02" y="-1563.2" font-family="Arial" font-size="14.00" fill="#666666">[integer]</text>
<polygon fill="none" stroke="black" points="478.11,-1520.2 478.11,-1551 741.1,-1551 741.1,-1520.2 478.11,-1520.2"/>
<text text-anchor="start" x="485.11" y="-1532.4" font-family="Arial" font-size="14.00">comment </text>
<text text-anchor="start" x="546.57" y="-1532.4" font-family="Arial" font-size="14.00" fill="#666666">[text]</text>
<polygon fill="none" stroke="black" points="478.11,-1489.4 478.11,-1520.2 741.1,-1520.2 741.1,-1489.4 478.11,-1489.4"/>
<text text-anchor="start" x="485.11" y="-1501.6" font-family="Arial" font-size="14.00">userId </text>
<text text-anchor="start" x="527.91" y="-1501.6" font-family="Arial" font-size="14.00" fill="#666666">[uuid]</text>
<polygon fill="none" stroke="black" points="478.11,-1458.6 478.11,-1489.4 741.1,-1489.4 741.1,-1458.6 478.11,-1458.6"/>
<text text-anchor="start" x="485.11" y="-1470.8" font-family="Arial" font-size="14.00">vehicleId </text>
<text text-anchor="start" x="544.25" y="-1470.8" font-family="Arial" font-size="14.00" fill="#666666">[uuid]</text>
<polygon fill="none" stroke="black" points="478.11,-1427.8 478.11,-1458.6 741.1,-1458.6 741.1,-1427.8 478.11,-1427.8"/>
<text text-anchor="start" x="485.11" y="-1440" font-family="Arial" font-size="14.00">createdAt </text>
<text text-anchor="start" x="548.92" y="-1440" font-family="Arial" font-size="14.00" fill="#666666">[timestamp without time zone]</text>
</g>
<!-- public.reviews&#45;&gt;public.vehicles -->
<g id="edge2" class="edge">
<title>public.reviews:vehicleId&#45;&gt;public.vehicles:id</title>
<path fill="none" stroke="black" d="M466.91,-1472.43C442.29,-1463.39 463.65,-1417.24 478.11,-1384.6 499.83,-1335.51 544.9,-1351.5 566.6,-1302.4 584.07,-1262.89 610.81,-1205.2 567.6,-1205.2"/>
<polygon fill="black" stroke="black" points="466.89,-1472.43 476.09,-1478.4 472.16,-1473.24 476.44,-1473.9 476.44,-1473.9 476.44,-1473.9 472.16,-1473.24 477.46,-1469.5 466.89,-1472.43"/>
<text text-anchor="start" x="484.11" y="-1484" font-family="Arial" font-size="10.00">FOREIGN KEY (&quot;vehicleId&quot;) REFERENCES vehicles(id) ON DELETE CASCADE</text>
</g>
</g>
</svg>
