<?xml version="1.0" encoding="UTF-8" standalone="no"?>
<!DOCTYPE svg PUBLIC "-//W3C//DTD SVG 1.1//EN"
 "http://www.w3.org/Graphics/SVG/1.1/DTD/svg11.dtd">
<!-- Generated by graphviz version 12.1.2 (20240928.0832)
 -->
<!-- Title: public.users Pages: 1 -->
<svg width="1855pt" height="1310pt"
 viewBox="0.00 0.00 1854.90 1310.40" xmlns="http://www.w3.org/2000/svg" xmlns:xlink="http://www.w3.org/1999/xlink">
<g id="graph0" class="graph" transform="scale(1 1) rotate(0) translate(4 1306.4)">
<title>public.users</title>
<polygon fill="white" stroke="none" points="-4,4 -4,-1306.4 1850.9,-1306.4 1850.9,4 -4,4"/>
<!-- public.users -->
<g id="node1" class="node">
<title>public.users</title>
<polygon fill="#efefef" stroke="none" points="791.8,-477.4 791.8,-513 1076.6,-513 1076.6,-477.4 791.8,-477.4"/>
<polygon fill="none" stroke="black" points="791.8,-477.4 791.8,-513 1076.6,-513 1076.6,-477.4 791.8,-477.4"/>
<text text-anchor="start" x="828.71" y="-490.8" font-family="Arial Bold" font-size="18.00">public.users</text>
<text text-anchor="start" x="915.2" y="-490.8" font-family="Arial" font-size="14.00">    </text>
<text text-anchor="start" x="946.31" y="-490.8" font-family="Arial" font-size="14.00" fill="#666666">[BASE TABLE]</text>
<polygon fill="none" stroke="black" points="791.8,-446.6 791.8,-477.4 1076.6,-477.4 1076.6,-446.6 791.8,-446.6"/>
<text text-anchor="start" x="798.8" y="-458.8" font-family="Arial" font-size="14.00">id </text>
<text text-anchor="start" x="813.58" y="-458.8" font-family="Arial" font-size="14.00" fill="#666666">[uuid]</text>
<polygon fill="none" stroke="black" points="791.8,-415.8 791.8,-446.6 1076.6,-446.6 1076.6,-415.8 791.8,-415.8"/>
<text text-anchor="start" x="798.8" y="-428" font-family="Arial" font-size="14.00">email </text>
<text text-anchor="start" x="836.14" y="-428" font-family="Arial" font-size="14.00" fill="#666666">[varchar]</text>
<polygon fill="none" stroke="black" points="791.8,-385 791.8,-415.8 1076.6,-415.8 1076.6,-385 791.8,-385"/>
<text text-anchor="start" x="798.8" y="-397.2" font-family="Arial" font-size="14.00">password </text>
<text text-anchor="start" x="862.6" y="-397.2" font-family="Arial" font-size="14.00" fill="#666666">[varchar]</text>
<polygon fill="none" stroke="black" points="791.8,-354.2 791.8,-385 1076.6,-385 1076.6,-354.2 791.8,-354.2"/>
<text text-anchor="start" x="798.8" y="-366.4" font-family="Arial" font-size="14.00">fullName </text>
<text text-anchor="start" x="857.93" y="-366.4" font-family="Arial" font-size="14.00" fill="#666666">[varchar]</text>
<polygon fill="none" stroke="black" points="791.8,-323.4 791.8,-354.2 1076.6,-354.2 1076.6,-323.4 791.8,-323.4"/>
<text text-anchor="start" x="798.8" y="-335.6" font-family="Arial" font-size="14.00">securityQuestion </text>
<text text-anchor="start" x="906.95" y="-335.6" font-family="Arial" font-size="14.00" fill="#666666">[varchar]</text>
<polygon fill="none" stroke="black" points="791.8,-292.6 791.8,-323.4 1076.6,-323.4 1076.6,-292.6 791.8,-292.6"/>
<text text-anchor="start" x="798.8" y="-304.8" font-family="Arial" font-size="14.00">securityAnswerHash </text>
<text text-anchor="start" x="930.29" y="-304.8" font-family="Arial" font-size="14.00" fill="#666666">[varchar]</text>
<polygon fill="none" stroke="black" points="791.8,-261.8 791.8,-292.6 1076.6,-292.6 1076.6,-261.8 791.8,-261.8"/>
<text text-anchor="start" x="798.8" y="-274" font-family="Arial" font-size="14.00">role </text>
<text text-anchor="start" x="826.03" y="-274" font-family="Arial" font-size="14.00" fill="#666666">[users_role_enum]</text>
<polygon fill="none" stroke="black" points="791.8,-231 791.8,-261.8 1076.6,-261.8 1076.6,-231 791.8,-231"/>
<text text-anchor="start" x="798.8" y="-243.2" font-family="Arial" font-size="14.00">isActive </text>
<text text-anchor="start" x="850.92" y="-243.2" font-family="Arial" font-size="14.00" fill="#666666">[boolean]</text>
<polygon fill="none" stroke="black" points="791.8,-200.2 791.8,-231 1076.6,-231 1076.6,-200.2 791.8,-200.2"/>
<text text-anchor="start" x="798.8" y="-212.4" font-family="Arial" font-size="14.00">suspendedAt </text>
<text text-anchor="start" x="884.42" y="-212.4" font-family="Arial" font-size="14.00" fill="#666666">[timestamp without time zone]</text>
<polygon fill="none" stroke="black" points="791.8,-169.4 791.8,-200.2 1076.6,-200.2 1076.6,-169.4 791.8,-169.4"/>
<text text-anchor="start" x="798.8" y="-181.6" font-family="Arial" font-size="14.00">isVerified </text>
<text text-anchor="start" x="860.27" y="-181.6" font-family="Arial" font-size="14.00" fill="#666666">[boolean]</text>
<polygon fill="none" stroke="black" points="791.8,-138.6 791.8,-169.4 1076.6,-169.4 1076.6,-138.6 791.8,-138.6"/>
<text text-anchor="start" x="798.8" y="-150.8" font-family="Arial" font-size="14.00">profileImage </text>
<text text-anchor="start" x="879.73" y="-150.8" font-family="Arial" font-size="14.00" fill="#666666">[varchar]</text>
<polygon fill="none" stroke="black" points="791.8,-107.8 791.8,-138.6 1076.6,-138.6 1076.6,-107.8 791.8,-107.8"/>
<text text-anchor="start" x="798.8" y="-120" font-family="Arial" font-size="14.00">createdAt </text>
<text text-anchor="start" x="862.61" y="-120" font-family="Arial" font-size="14.00" fill="#666666">[timestamp without time zone]</text>
<polygon fill="none" stroke="black" points="791.8,-77 791.8,-107.8 1076.6,-107.8 1076.6,-77 791.8,-77"/>
<text text-anchor="start" x="798.8" y="-89.2" font-family="Arial" font-size="14.00">updatedAt </text>
<text text-anchor="start" x="866.52" y="-89.2" font-family="Arial" font-size="14.00" fill="#666666">[timestamp without time zone]</text>
<polygon fill="none" stroke="black" points="791.8,-46.2 791.8,-77 1076.6,-77 1076.6,-46.2 791.8,-46.2"/>
<text text-anchor="start" x="798.8" y="-58.4" font-family="Arial" font-size="14.00">deletedAt </text>
<text text-anchor="start" x="861.84" y="-58.4" font-family="Arial" font-size="14.00" fill="#666666">[timestamp without time zone]</text>
<polygon fill="none" stroke="black" stroke-width="3" points="790.3,-44.7 790.3,-514.5 1078.1,-514.5 1078.1,-44.7 790.3,-44.7"/>
</g>
<!-- public.vehicles -->
<g id="node2" class="node">
<title>public.vehicles</title>
<polygon fill="#efefef" stroke="none" points="43.2,-1223.6 43.2,-1259.2 327.2,-1259.2 327.2,-1223.6 43.2,-1223.6"/>
<polygon fill="none" stroke="black" points="43.2,-1223.6 43.2,-1259.2 327.2,-1259.2 327.2,-1223.6 43.2,-1223.6"/>
<text text-anchor="start" x="68.72" y="-1237" font-family="Arial Bold" font-size="18.00">public.vehicles</text>
<text text-anchor="start" x="177.19" y="-1237" font-family="Arial" font-size="14.00">    </text>
<text text-anchor="start" x="208.3" y="-1237" font-family="Arial" font-size="14.00" fill="#666666">[BASE TABLE]</text>
<polygon fill="none" stroke="black" points="43.2,-1192.8 43.2,-1223.6 327.2,-1223.6 327.2,-1192.8 43.2,-1192.8"/>
<text text-anchor="start" x="50.2" y="-1205" font-family="Arial" font-size="14.00">id </text>
<text text-anchor="start" x="64.99" y="-1205" font-family="Arial" font-size="14.00" fill="#666666">[uuid]</text>
<polygon fill="none" stroke="black" points="43.2,-1162 43.2,-1192.8 327.2,-1192.8 327.2,-1162 43.2,-1162"/>
<text text-anchor="start" x="50.2" y="-1174.2" font-family="Arial" font-size="14.00">ownerId </text>
<text text-anchor="start" x="103.9" y="-1174.2" font-family="Arial" font-size="14.00" fill="#666666">[uuid]</text>
<polygon fill="none" stroke="black" points="43.2,-1131.2 43.2,-1162 327.2,-1162 327.2,-1131.2 43.2,-1131.2"/>
<text text-anchor="start" x="50.2" y="-1143.4" font-family="Arial" font-size="14.00">brand </text>
<text text-anchor="start" x="89.9" y="-1143.4" font-family="Arial" font-size="14.00" fill="#666666">[varchar]</text>
<polygon fill="none" stroke="black" points="43.2,-1100.4 43.2,-1131.2 327.2,-1131.2 327.2,-1100.4 43.2,-1100.4"/>
<text text-anchor="start" x="50.2" y="-1112.6" font-family="Arial" font-size="14.00">model </text>
<text text-anchor="start" x="92.22" y="-1112.6" font-family="Arial" font-size="14.00" fill="#666666">[varchar]</text>
<polygon fill="none" stroke="black" points="43.2,-1069.6 43.2,-1100.4 327.2,-1100.4 327.2,-1069.6 43.2,-1069.6"/>
<text text-anchor="start" x="50.2" y="-1081.8" font-family="Arial" font-size="14.00">year </text>
<text text-anchor="start" x="81.32" y="-1081.8" font-family="Arial" font-size="14.00" fill="#666666">[integer]</text>
<polygon fill="none" stroke="black" points="43.2,-1038.8 43.2,-1069.6 327.2,-1069.6 327.2,-1038.8 43.2,-1038.8"/>
<text text-anchor="start" x="50.2" y="-1051" font-family="Arial" font-size="14.00">vin </text>
<text text-anchor="start" x="71.99" y="-1051" font-family="Arial" font-size="14.00" fill="#666666">[varchar]</text>
<polygon fill="none" stroke="black" points="43.2,-1008 43.2,-1038.8 327.2,-1038.8 327.2,-1008 43.2,-1008"/>
<text text-anchor="start" x="50.2" y="-1020.2" font-family="Arial" font-size="14.00">dailyPrice </text>
<text text-anchor="start" x="114.78" y="-1020.2" font-family="Arial" font-size="14.00" fill="#666666">[numeric(10,2)]</text>
<polygon fill="none" stroke="black" points="43.2,-977.2 43.2,-1008 327.2,-1008 327.2,-977.2 43.2,-977.2"/>
<text text-anchor="start" x="50.2" y="-989.4" font-family="Arial" font-size="14.00">engineType </text>
<text text-anchor="start" x="127.25" y="-989.4" font-family="Arial" font-size="14.00" fill="#666666">[varchar]</text>
<polygon fill="none" stroke="black" points="43.2,-946.4 43.2,-977.2 327.2,-977.2 327.2,-946.4 43.2,-946.4"/>
<text text-anchor="start" x="50.2" y="-958.6" font-family="Arial" font-size="14.00">fuelType </text>
<text text-anchor="start" x="107.79" y="-958.6" font-family="Arial" font-size="14.00" fill="#666666">[vehicles_fueltype_enum]</text>
<polygon fill="none" stroke="black" points="43.2,-915.6 43.2,-946.4 327.2,-946.4 327.2,-915.6 43.2,-915.6"/>
<text text-anchor="start" x="50.2" y="-927.8" font-family="Arial" font-size="14.00">transmission </text>
<text text-anchor="start" x="132.67" y="-927.8" font-family="Arial" font-size="14.00" fill="#666666">[vehicles_transmission_enum]</text>
<polygon fill="none" stroke="black" points="43.2,-884.8 43.2,-915.6 327.2,-915.6 327.2,-884.8 43.2,-884.8"/>
<text text-anchor="start" x="50.2" y="-897" font-family="Arial" font-size="14.00">latitude </text>
<text text-anchor="start" x="99.23" y="-897" font-family="Arial" font-size="14.00" fill="#666666">[numeric(9,6)]</text>
<polygon fill="none" stroke="black" points="43.2,-854 43.2,-884.8 327.2,-884.8 327.2,-854 43.2,-854"/>
<text text-anchor="start" x="50.2" y="-866.2" font-family="Arial" font-size="14.00">longitude </text>
<text text-anchor="start" x="110.92" y="-866.2" font-family="Arial" font-size="14.00" fill="#666666">[numeric(9,6)]</text>
<polygon fill="none" stroke="black" points="43.2,-823.2 43.2,-854 327.2,-854 327.2,-823.2 43.2,-823.2"/>
<text text-anchor="start" x="50.2" y="-835.4" font-family="Arial" font-size="14.00">minRentDays </text>
<text text-anchor="start" x="138.12" y="-835.4" font-family="Arial" font-size="14.00" fill="#666666">[integer]</text>
<polygon fill="none" stroke="black" points="43.2,-792.4 43.2,-823.2 327.2,-823.2 327.2,-792.4 43.2,-792.4"/>
<text text-anchor="start" x="50.2" y="-804.6" font-family="Arial" font-size="14.00">maxRentDays </text>
<text text-anchor="start" x="142.01" y="-804.6" font-family="Arial" font-size="14.00" fill="#666666">[integer]</text>
<polygon fill="none" stroke="black" points="43.2,-761.6 43.2,-792.4 327.2,-792.4 327.2,-761.6 43.2,-761.6"/>
<text text-anchor="start" x="50.2" y="-773.8" font-family="Arial" font-size="14.00">isAvailable </text>
<text text-anchor="start" x="121.01" y="-773.8" font-family="Arial" font-size="14.00" fill="#666666">[boolean]</text>
<polygon fill="none" stroke="black" points="43.2,-730.8 43.2,-761.6 327.2,-761.6 327.2,-730.8 43.2,-730.8"/>
<text text-anchor="start" x="50.2" y="-743" font-family="Arial" font-size="14.00">images </text>
<text text-anchor="start" x="99.22" y="-743" font-family="Arial" font-size="14.00" fill="#666666">[text[]]</text>
<polygon fill="none" stroke="black" points="43.2,-700 43.2,-730.8 327.2,-730.8 327.2,-700 43.2,-700"/>
<text text-anchor="start" x="50.2" y="-712.2" font-family="Arial" font-size="14.00">createdAt </text>
<text text-anchor="start" x="114.01" y="-712.2" font-family="Arial" font-size="14.00" fill="#666666">[timestamp without time zone]</text>
<polygon fill="none" stroke="black" points="43.2,-669.2 43.2,-700 327.2,-700 327.2,-669.2 43.2,-669.2"/>
<text text-anchor="start" x="50.2" y="-681.4" font-family="Arial" font-size="14.00">updatedAt </text>
<text text-anchor="start" x="117.92" y="-681.4" font-family="Arial" font-size="14.00" fill="#666666">[timestamp without time zone]</text>
<polygon fill="none" stroke="black" points="43.2,-638.4 43.2,-669.2 327.2,-669.2 327.2,-638.4 43.2,-638.4"/>
<text text-anchor="start" x="50.2" y="-650.6" font-family="Arial" font-size="14.00">deletedAt </text>
<text text-anchor="start" x="113.25" y="-650.6" font-family="Arial" font-size="14.00" fill="#666666">[timestamp without time zone]</text>
</g>
<!-- public.vehicles&#45;&gt;public.users -->
<g id="edge1" class="edge">
<title>public.vehicles:ownerId&#45;&gt;public.users:id</title>
<path fill="none" stroke="black" d="M337.51,-1173.12C387.66,-1122.69 340.88,-643.32 379.2,-595.2 439.09,-520 694.66,-462 790.8,-462"/>
<polygon fill="black" stroke="black" points="337.59,-1173.08 326.62,-1173.17 332.74,-1175.31 328.81,-1177.12 328.81,-1177.12 328.81,-1177.12 332.74,-1175.31 330.38,-1181.35 337.59,-1173.08"/>
<text text-anchor="start" x="335.2" y="-1187.4" font-family="Arial" font-size="10.00">FOREIGN KEY (&quot;ownerId&quot;) REFERENCES users(id) ON DELETE CASCADE</text>
</g>
<!-- public.bookings -->
<g id="node3" class="node">
<title>public.bookings</title>
<polygon fill="#efefef" stroke="none" points="431.74,-1069.6 431.74,-1105.2 698.65,-1105.2 698.65,-1069.6 431.74,-1069.6"/>
<polygon fill="none" stroke="black" points="431.74,-1069.6 431.74,-1105.2 698.65,-1105.2 698.65,-1069.6 431.74,-1069.6"/>
<text text-anchor="start" x="445.21" y="-1083" font-family="Arial Bold" font-size="18.00">public.bookings</text>
<text text-anchor="start" x="560.7" y="-1083" font-family="Arial" font-size="14.00">    </text>
<text text-anchor="start" x="591.82" y="-1083" font-family="Arial" font-size="14.00" fill="#666666">[BASE TABLE]</text>
<polygon fill="none" stroke="black" points="431.74,-1038.8 431.74,-1069.6 698.65,-1069.6 698.65,-1038.8 431.74,-1038.8"/>
<text text-anchor="start" x="438.74" y="-1051" font-family="Arial" font-size="14.00">id </text>
<text text-anchor="start" x="453.53" y="-1051" font-family="Arial" font-size="14.00" fill="#666666">[uuid]</text>
<polygon fill="none" stroke="black" points="431.74,-1008 431.74,-1038.8 698.65,-1038.8 698.65,-1008 431.74,-1008"/>
<text text-anchor="start" x="438.74" y="-1020.2" font-family="Arial" font-size="14.00">customerId </text>
<text text-anchor="start" x="511.88" y="-1020.2" font-family="Arial" font-size="14.00" fill="#666666">[uuid]</text>
<polygon fill="none" stroke="black" points="431.74,-977.2 431.74,-1008 698.65,-1008 698.65,-977.2 431.74,-977.2"/>
<text text-anchor="start" x="438.74" y="-989.4" font-family="Arial" font-size="14.00">vehicleId </text>
<text text-anchor="start" x="497.89" y="-989.4" font-family="Arial" font-size="14.00" fill="#666666">[uuid]</text>
<polygon fill="none" stroke="black" points="431.74,-946.4 431.74,-977.2 698.65,-977.2 698.65,-946.4 431.74,-946.4"/>
<text text-anchor="start" x="438.74" y="-958.6" font-family="Arial" font-size="14.00">startDate </text>
<text text-anchor="start" x="499.43" y="-958.6" font-family="Arial" font-size="14.00" fill="#666666">[timestamp without time zone]</text>
<polygon fill="none" stroke="black" points="431.74,-915.6 431.74,-946.4 698.65,-946.4 698.65,-915.6 431.74,-915.6"/>
<text text-anchor="start" x="438.74" y="-927.8" font-family="Arial" font-size="14.00">endDate </text>
<text text-anchor="start" x="495.57" y="-927.8" font-family="Arial" font-size="14.00" fill="#666666">[timestamp without time zone]</text>
<polygon fill="none" stroke="black" points="431.74,-884.8 431.74,-915.6 698.65,-915.6 698.65,-884.8 431.74,-884.8"/>
<text text-anchor="start" x="438.74" y="-897" font-family="Arial" font-size="14.00">totalPrice </text>
<text text-anchor="start" x="500.99" y="-897" font-family="Arial" font-size="14.00" fill="#666666">[numeric(10,2)]</text>
<polygon fill="none" stroke="black" points="431.74,-854 431.74,-884.8 698.65,-884.8 698.65,-854 431.74,-854"/>
<text text-anchor="start" x="438.74" y="-866.2" font-family="Arial" font-size="14.00">status </text>
<text text-anchor="start" x="479.99" y="-866.2" font-family="Arial" font-size="14.00" fill="#666666">[bookings_status_enum]</text>
<polygon fill="none" stroke="black" points="431.74,-823.2 431.74,-854 698.65,-854 698.65,-823.2 431.74,-823.2"/>
<text text-anchor="start" x="438.74" y="-835.4" font-family="Arial" font-size="14.00">createdAt </text>
<text text-anchor="start" x="502.56" y="-835.4" font-family="Arial" font-size="14.00" fill="#666666">[timestamp without time zone]</text>
<polygon fill="none" stroke="black" points="431.74,-792.4 431.74,-823.2 698.65,-823.2 698.65,-792.4 431.74,-792.4"/>
<text text-anchor="start" x="438.74" y="-804.6" font-family="Arial" font-size="14.00">updatedAt </text>
<text text-anchor="start" x="506.47" y="-804.6" font-family="Arial" font-size="14.00" fill="#666666">[timestamp without time zone]</text>
</g>
<!-- public.bookings&#45;&gt;public.users -->
<g id="edge2" class="edge">
<title>public.bookings:customerId&#45;&gt;public.users:id</title>
<path fill="none" stroke="black" d="M708.73,-1018.28C746.66,-972.83 741.04,-638.88 750.2,-595.2 762.9,-534.63 728.91,-462 790.8,-462"/>
<polygon fill="black" stroke="black" points="708.66,-1018.32 697.74,-1019.32 704.01,-1020.94 700.24,-1023.07 700.24,-1023.07 700.24,-1023.07 704.01,-1020.94 702.16,-1027.16 708.66,-1018.32"/>
<text text-anchor="start" x="706.65" y="-1033.4" font-family="Arial" font-size="10.00">FOREIGN KEY (&quot;customerId&quot;) REFERENCES users(id) ON DELETE RESTRICT</text>
</g>
<!-- public.reviews -->
<g id="node4" class="node">
<title>public.reviews</title>
<polygon fill="#efefef" stroke="none" points="802.7,-1023.4 802.7,-1059 1065.7,-1059 1065.7,-1023.4 802.7,-1023.4"/>
<polygon fill="none" stroke="black" points="802.7,-1023.4 802.7,-1059 1065.7,-1059 1065.7,-1023.4 802.7,-1023.4"/>
<text text-anchor="start" x="819.22" y="-1036.8" font-family="Arial Bold" font-size="18.00">public.reviews</text>
<text text-anchor="start" x="924.69" y="-1036.8" font-family="Arial" font-size="14.00">    </text>
<text text-anchor="start" x="955.81" y="-1036.8" font-family="Arial" font-size="14.00" fill="#666666">[BASE TABLE]</text>
<polygon fill="none" stroke="black" points="802.7,-992.6 802.7,-1023.4 1065.7,-1023.4 1065.7,-992.6 802.7,-992.6"/>
<text text-anchor="start" x="809.7" y="-1004.8" font-family="Arial" font-size="14.00">id </text>
<text text-anchor="start" x="824.49" y="-1004.8" font-family="Arial" font-size="14.00" fill="#666666">[uuid]</text>
<polygon fill="none" stroke="black" points="802.7,-961.8 802.7,-992.6 1065.7,-992.6 1065.7,-961.8 802.7,-961.8"/>
<text text-anchor="start" x="809.7" y="-974" font-family="Arial" font-size="14.00">rating </text>
<text text-anchor="start" x="848.61" y="-974" font-family="Arial" font-size="14.00" fill="#666666">[integer]</text>
<polygon fill="none" stroke="black" points="802.7,-931 802.7,-961.8 1065.7,-961.8 1065.7,-931 802.7,-931"/>
<text text-anchor="start" x="809.7" y="-943.2" font-family="Arial" font-size="14.00">comment </text>
<text text-anchor="start" x="871.16" y="-943.2" font-family="Arial" font-size="14.00" fill="#666666">[text]</text>
<polygon fill="none" stroke="black" points="802.7,-900.2 802.7,-931 1065.7,-931 1065.7,-900.2 802.7,-900.2"/>
<text text-anchor="start" x="809.7" y="-912.4" font-family="Arial" font-size="14.00">userId </text>
<text text-anchor="start" x="852.5" y="-912.4" font-family="Arial" font-size="14.00" fill="#666666">[uuid]</text>
<polygon fill="none" stroke="black" points="802.7,-869.4 802.7,-900.2 1065.7,-900.2 1065.7,-869.4 802.7,-869.4"/>
<text text-anchor="start" x="809.7" y="-881.6" font-family="Arial" font-size="14.00">vehicleId </text>
<text text-anchor="start" x="868.84" y="-881.6" font-family="Arial" font-size="14.00" fill="#666666">[uuid]</text>
<polygon fill="none" stroke="black" points="802.7,-838.6 802.7,-869.4 1065.7,-869.4 1065.7,-838.6 802.7,-838.6"/>
<text text-anchor="start" x="809.7" y="-850.8" font-family="Arial" font-size="14.00">createdAt </text>
<text text-anchor="start" x="873.51" y="-850.8" font-family="Arial" font-size="14.00" fill="#666666">[timestamp without time zone]</text>
</g>
<!-- public.reviews&#45;&gt;public.users -->
<g id="edge3" class="edge">
<title>public.reviews:userId&#45;&gt;public.users:id</title>
<path fill="none" stroke="black" d="M1075.68,-910.51C1118.24,-860.67 1124.87,-462 1077.6,-462"/>
<polygon fill="black" stroke="black" points="1075.69,-910.5 1064.77,-911.52 1071.05,-913.13 1067.28,-915.27 1067.28,-915.27 1067.28,-915.27 1071.05,-913.13 1069.21,-919.35 1075.69,-910.5"/>
<text text-anchor="start" x="723.64" y="-925.6" font-family="Arial" font-size="10.00">FOREIGN KEY (&quot;userId&quot;) REFERENCES users(id) ON DELETE CASCADE</text>
</g>
<!-- public.wallets -->
<g id="node5" class="node">
<title>public.wallets</title>
<polygon fill="#efefef" stroke="none" points="1169.74,-1115.8 1169.74,-1151.4 1436.65,-1151.4 1436.65,-1115.8 1169.74,-1115.8"/>
<polygon fill="none" stroke="black" points="1169.74,-1115.8 1169.74,-1151.4 1436.65,-1151.4 1436.65,-1115.8 1169.74,-1115.8"/>
<text text-anchor="start" x="1190.72" y="-1129.2" font-family="Arial Bold" font-size="18.00">public.wallets</text>
<text text-anchor="start" x="1291.19" y="-1129.2" font-family="Arial" font-size="14.00">    </text>
<text text-anchor="start" x="1322.31" y="-1129.2" font-family="Arial" font-size="14.00" fill="#666666">[BASE TABLE]</text>
<polygon fill="none" stroke="black" points="1169.74,-1085 1169.74,-1115.8 1436.65,-1115.8 1436.65,-1085 1169.74,-1085"/>
<text text-anchor="start" x="1176.74" y="-1097.2" font-family="Arial" font-size="14.00">id </text>
<text text-anchor="start" x="1191.53" y="-1097.2" font-family="Arial" font-size="14.00" fill="#666666">[uuid]</text>
<polygon fill="none" stroke="black" points="1169.74,-1054.2 1169.74,-1085 1436.65,-1085 1436.65,-1054.2 1169.74,-1054.2"/>
<text text-anchor="start" x="1176.74" y="-1066.4" font-family="Arial" font-size="14.00">userId </text>
<text text-anchor="start" x="1219.54" y="-1066.4" font-family="Arial" font-size="14.00" fill="#666666">[uuid]</text>
<polygon fill="none" stroke="black" points="1169.74,-1023.4 1169.74,-1054.2 1436.65,-1054.2 1436.65,-1023.4 1169.74,-1023.4"/>
<text text-anchor="start" x="1176.74" y="-1035.6" font-family="Arial" font-size="14.00">balance </text>
<text text-anchor="start" x="1229.68" y="-1035.6" font-family="Arial" font-size="14.00" fill="#666666">[numeric(12,2)]</text>
<polygon fill="none" stroke="black" points="1169.74,-992.6 1169.74,-1023.4 1436.65,-1023.4 1436.65,-992.6 1169.74,-992.6"/>
<text text-anchor="start" x="1176.74" y="-1004.8" font-family="Arial" font-size="14.00">verificationAttempts </text>
<text text-anchor="start" x="1302.79" y="-1004.8" font-family="Arial" font-size="14.00" fill="#666666">[integer]</text>
<polygon fill="none" stroke="black" points="1169.74,-961.8 1169.74,-992.6 1436.65,-992.6 1436.65,-961.8 1169.74,-961.8"/>
<text text-anchor="start" x="1176.74" y="-974" font-family="Arial" font-size="14.00">bankName </text>
<text text-anchor="start" x="1248.34" y="-974" font-family="Arial" font-size="14.00" fill="#666666">[varchar(100)]</text>
<polygon fill="none" stroke="black" points="1169.74,-931 1169.74,-961.8 1436.65,-961.8 1436.65,-931 1169.74,-931"/>
<text text-anchor="start" x="1176.74" y="-943.2" font-family="Arial" font-size="14.00">accountNumber </text>
<text text-anchor="start" x="1279.46" y="-943.2" font-family="Arial" font-size="14.00" fill="#666666">[varchar(50)]</text>
<polygon fill="none" stroke="black" points="1169.74,-900.2 1169.74,-931 1436.65,-931 1436.65,-900.2 1169.74,-900.2"/>
<text text-anchor="start" x="1176.74" y="-912.4" font-family="Arial" font-size="14.00">accountName </text>
<text text-anchor="start" x="1267.01" y="-912.4" font-family="Arial" font-size="14.00" fill="#666666">[varchar(150)]</text>
<polygon fill="none" stroke="black" points="1169.74,-869.4 1169.74,-900.2 1436.65,-900.2 1436.65,-869.4 1169.74,-869.4"/>
<text text-anchor="start" x="1176.74" y="-881.6" font-family="Arial" font-size="14.00">isBankVerified </text>
<text text-anchor="start" x="1270.12" y="-881.6" font-family="Arial" font-size="14.00" fill="#666666">[boolean]</text>
<polygon fill="none" stroke="black" points="1169.74,-838.6 1169.74,-869.4 1436.65,-869.4 1436.65,-838.6 1169.74,-838.6"/>
<text text-anchor="start" x="1176.74" y="-850.8" font-family="Arial" font-size="14.00">gatewayBankToken </text>
<text text-anchor="start" x="1303.6" y="-850.8" font-family="Arial" font-size="14.00" fill="#666666">[varchar(100)]</text>
<polygon fill="none" stroke="black" points="1169.74,-807.8 1169.74,-838.6 1436.65,-838.6 1436.65,-807.8 1169.74,-807.8"/>
<text text-anchor="start" x="1176.74" y="-820" font-family="Arial" font-size="14.00">microDeposits </text>
<text text-anchor="start" x="1269.32" y="-820" font-family="Arial" font-size="14.00" fill="#666666">[text]</text>
<polygon fill="none" stroke="black" points="1169.74,-777 1169.74,-807.8 1436.65,-807.8 1436.65,-777 1169.74,-777"/>
<text text-anchor="start" x="1176.74" y="-789.2" font-family="Arial" font-size="14.00">pendingBalance </text>
<text text-anchor="start" x="1281.05" y="-789.2" font-family="Arial" font-size="14.00" fill="#666666">[numeric(12,2)]</text>
<polygon fill="none" stroke="black" points="1169.74,-746.2 1169.74,-777 1436.65,-777 1436.65,-746.2 1169.74,-746.2"/>
<text text-anchor="start" x="1176.74" y="-758.4" font-family="Arial" font-size="14.00">updatedAt </text>
<text text-anchor="start" x="1244.47" y="-758.4" font-family="Arial" font-size="14.00" fill="#666666">[timestamp without time zone]</text>
</g>
<!-- public.wallets&#45;&gt;public.users -->
<g id="edge4" class="edge">
<title>public.wallets:userId&#45;&gt;public.users:id</title>
<path fill="none" stroke="black" d="M1159.56,-1064.84C1117.27,-1018.24 1128.12,-643.9 1118.2,-595.2 1105.84,-534.56 1139.49,-462 1077.6,-462"/>
<polygon fill="black" stroke="black" points="1159.57,-1064.85 1166.38,-1073.44 1164.3,-1067.3 1168.15,-1069.29 1168.15,-1069.29 1168.15,-1069.29 1164.3,-1067.3 1170.52,-1065.45 1159.57,-1064.85"/>
<text text-anchor="start" x="913.2" y="-1053.6" font-family="Arial" font-size="10.00">FOREIGN KEY (&quot;userId&quot;) REFERENCES users(id) ON DELETE CASCADE</text>
</g>
<!-- public.audit_logs -->
<g id="node6" class="node">
<title>public.audit_logs</title>
<polygon fill="#efefef" stroke="none" points="1540.7,-1038.8 1540.7,-1074.4 1803.7,-1074.4 1803.7,-1038.8 1540.7,-1038.8"/>
<polygon fill="none" stroke="black" points="1540.7,-1038.8 1540.7,-1074.4 1803.7,-1074.4 1803.7,-1038.8 1540.7,-1038.8"/>
<text text-anchor="start" x="1547.71" y="-1052.2" font-family="Arial Bold" font-size="18.00">public.audit_logs</text>
<text text-anchor="start" x="1672.2" y="-1052.2" font-family="Arial" font-size="14.00">    </text>
<text text-anchor="start" x="1703.32" y="-1052.2" font-family="Arial" font-size="14.00" fill="#666666">[BASE TABLE]</text>
<polygon fill="none" stroke="black" points="1540.7,-1008 1540.7,-1038.8 1803.7,-1038.8 1803.7,-1008 1540.7,-1008"/>
<text text-anchor="start" x="1547.7" y="-1020.2" font-family="Arial" font-size="14.00">id </text>
<text text-anchor="start" x="1562.49" y="-1020.2" font-family="Arial" font-size="14.00" fill="#666666">[uuid]</text>
<polygon fill="none" stroke="black" points="1540.7,-977.2 1540.7,-1008 1803.7,-1008 1803.7,-977.2 1540.7,-977.2"/>
<text text-anchor="start" x="1547.7" y="-989.4" font-family="Arial" font-size="14.00">adminId </text>
<text text-anchor="start" x="1601.4" y="-989.4" font-family="Arial" font-size="14.00" fill="#666666">[uuid]</text>
<polygon fill="none" stroke="black" points="1540.7,-946.4 1540.7,-977.2 1803.7,-977.2 1803.7,-946.4 1540.7,-946.4"/>
<text text-anchor="start" x="1547.7" y="-958.6" font-family="Arial" font-size="14.00">action </text>
<text text-anchor="start" x="1588.95" y="-958.6" font-family="Arial" font-size="14.00" fill="#666666">[varchar(100)]</text>
<polygon fill="none" stroke="black" points="1540.7,-915.6 1540.7,-946.4 1803.7,-946.4 1803.7,-915.6 1540.7,-915.6"/>
<text text-anchor="start" x="1547.7" y="-927.8" font-family="Arial" font-size="14.00">targetEntityId </text>
<text text-anchor="start" x="1634.08" y="-927.8" font-family="Arial" font-size="14.00" fill="#666666">[uuid]</text>
<polygon fill="none" stroke="black" points="1540.7,-884.8 1540.7,-915.6 1803.7,-915.6 1803.7,-884.8 1540.7,-884.8"/>
<text text-anchor="start" x="1547.7" y="-897" font-family="Arial" font-size="14.00">details </text>
<text text-anchor="start" x="1592.06" y="-897" font-family="Arial" font-size="14.00" fill="#666666">[jsonb]</text>
<polygon fill="none" stroke="black" points="1540.7,-854 1540.7,-884.8 1803.7,-884.8 1803.7,-854 1540.7,-854"/>
<text text-anchor="start" x="1547.7" y="-866.2" font-family="Arial" font-size="14.00">ipAddress </text>
<text text-anchor="start" x="1613.84" y="-866.2" font-family="Arial" font-size="14.00" fill="#666666">[varchar]</text>
<polygon fill="none" stroke="black" points="1540.7,-823.2 1540.7,-854 1803.7,-854 1803.7,-823.2 1540.7,-823.2"/>
<text text-anchor="start" x="1547.7" y="-835.4" font-family="Arial" font-size="14.00">createdAt </text>
<text text-anchor="start" x="1611.51" y="-835.4" font-family="Arial" font-size="14.00" fill="#666666">[timestamp without time zone]</text>
</g>
<!-- public.audit_logs&#45;&gt;public.users -->
<g id="edge5" class="edge">
<title>public.audit_logs:adminId&#45;&gt;public.users:id</title>
<path fill="none" stroke="black" d="M1529.65,-990.98C1458.24,-966.06 1543.68,-660.93 1489.2,-595.2 1427.85,-521.18 1173.74,-462 1077.6,-462"/>
<polygon fill="black" stroke="black" points="1529.5,-990.96 1538.65,-996.99 1534.76,-991.8 1539.04,-992.49 1539.04,-992.49 1539.04,-992.49 1534.76,-991.8 1540.09,-988.1 1529.5,-990.96"/>
<text text-anchor="start" x="1546.7" y="-1002.6" font-family="Arial" font-size="10.00">FOREIGN KEY (&quot;adminId&quot;) REFERENCES users(id)</text>
</g>
</g>
</svg>
