<?xml version="1.0" encoding="UTF-8" standalone="no"?>
<!DOCTYPE svg PUBLIC "-//W3C//DTD SVG 1.1//EN"
 "http://www.w3.org/Graphics/SVG/1.1/DTD/svg11.dtd">
<!-- Generated by graphviz version 12.1.2 (20240928.0832)
 -->
<!-- Title: public.audit_logs Pages: 1 -->
<svg width="573pt" height="941pt"
 viewBox="0.00 0.00 573.36 940.80" xmlns="http://www.w3.org/2000/svg" xmlns:xlink="http://www.w3.org/1999/xlink">
<g id="graph0" class="graph" transform="scale(1 1) rotate(0) translate(4 936.8)">
<title>public.audit_logs</title>
<polygon fill="white" stroke="none" points="-4,4 -4,-936.8 569.36,-936.8 569.36,4 -4,4"/>
<!-- public.audit_logs -->
<g id="node1" class="node">
<title>public.audit_logs</title>
<polygon fill="#efefef" stroke="none" points="54.1,-851 54.1,-886.6 317.1,-886.6 317.1,-851 54.1,-851"/>
<polygon fill="none" stroke="black" points="54.1,-851 54.1,-886.6 317.1,-886.6 317.1,-851 54.1,-851"/>
<text text-anchor="start" x="61.11" y="-864.4" font-family="Arial Bold" font-size="18.00">public.audit_logs</text>
<text text-anchor="start" x="185.6" y="-864.4" font-family="Arial" font-size="14.00">    </text>
<text text-anchor="start" x="216.72" y="-864.4" font-family="Arial" font-size="14.00" fill="#666666">[BASE TABLE]</text>
<polygon fill="none" stroke="black" points="54.1,-820.2 54.1,-851 317.1,-851 317.1,-820.2 54.1,-820.2"/>
<text text-anchor="start" x="61.1" y="-832.4" font-family="Arial" font-size="14.00">id </text>
<text text-anchor="start" x="75.89" y="-832.4" font-family="Arial" font-size="14.00" fill="#666666">[uuid]</text>
<polygon fill="none" stroke="black" points="54.1,-789.4 54.1,-820.2 317.1,-820.2 317.1,-789.4 54.1,-789.4"/>
<text text-anchor="start" x="61.1" y="-801.6" font-family="Arial" font-size="14.00">adminId </text>
<text text-anchor="start" x="114.8" y="-801.6" font-family="Arial" font-size="14.00" fill="#666666">[uuid]</text>
<polygon fill="none" stroke="black" points="54.1,-758.6 54.1,-789.4 317.1,-789.4 317.1,-758.6 54.1,-758.6"/>
<text text-anchor="start" x="61.1" y="-770.8" font-family="Arial" font-size="14.00">action </text>
<text text-anchor="start" x="102.35" y="-770.8" font-family="Arial" font-size="14.00" fill="#666666">[varchar(100)]</text>
<polygon fill="none" stroke="black" points="54.1,-727.8 54.1,-758.6 317.1,-758.6 317.1,-727.8 54.1,-727.8"/>
<text text-anchor="start" x="61.1" y="-740" font-family="Arial" font-size="14.00">targetEntityId </text>
<text text-anchor="start" x="147.48" y="-740" font-family="Arial" font-size="14.00" fill="#666666">[uuid]</text>
<polygon fill="none" stroke="black" points="54.1,-697 54.1,-727.8 317.1,-727.8 317.1,-697 54.1,-697"/>
<text text-anchor="start" x="61.1" y="-709.2" font-family="Arial" font-size="14.00">details </text>
<text text-anchor="start" x="105.46" y="-709.2" font-family="Arial" font-size="14.00" fill="#666666">[jsonb]</text>
<polygon fill="none" stroke="black" points="54.1,-666.2 54.1,-697 317.1,-697 317.1,-666.2 54.1,-666.2"/>
<text text-anchor="start" x="61.1" y="-678.4" font-family="Arial" font-size="14.00">ipAddress </text>
<text text-anchor="start" x="127.25" y="-678.4" font-family="Arial" font-size="14.00" fill="#666666">[varchar]</text>
<polygon fill="none" stroke="black" points="54.1,-635.4 54.1,-666.2 317.1,-666.2 317.1,-635.4 54.1,-635.4"/>
<text text-anchor="start" x="61.1" y="-647.6" font-family="Arial" font-size="14.00">createdAt </text>
<text text-anchor="start" x="124.92" y="-647.6" font-family="Arial" font-size="14.00" fill="#666666">[timestamp without time zone]</text>
<polygon fill="none" stroke="black" stroke-width="3" points="52.6,-633.9 52.6,-888.1 318.6,-888.1 318.6,-633.9 52.6,-633.9"/>
</g>
<!-- public.users -->
<g id="node2" class="node">
<title>public.users</title>
<polygon fill="#efefef" stroke="none" points="43.2,-474.4 43.2,-510 328.01,-510 328.01,-474.4 43.2,-474.4"/>
<polygon fill="none" stroke="black" points="43.2,-474.4 43.2,-510 328.01,-510 328.01,-474.4 43.2,-474.4"/>
<text text-anchor="start" x="80.12" y="-487.8" font-family="Arial Bold" font-size="18.00">public.users</text>
<text text-anchor="start" x="166.6" y="-487.8" font-family="Arial" font-size="14.00">    </text>
<text text-anchor="start" x="197.72" y="-487.8" font-family="Arial" font-size="14.00" fill="#666666">[BASE TABLE]</text>
<polygon fill="none" stroke="black" points="43.2,-443.6 43.2,-474.4 328.01,-474.4 328.01,-443.6 43.2,-443.6"/>
<text text-anchor="start" x="50.2" y="-455.8" font-family="Arial" font-size="14.00">id </text>
<text text-anchor="start" x="64.99" y="-455.8" font-family="Arial" font-size="14.00" fill="#666666">[uuid]</text>
<polygon fill="none" stroke="black" points="43.2,-412.8 43.2,-443.6 328.01,-443.6 328.01,-412.8 43.2,-412.8"/>
<text text-anchor="start" x="50.2" y="-425" font-family="Arial" font-size="14.00">email </text>
<text text-anchor="start" x="87.54" y="-425" font-family="Arial" font-size="14.00" fill="#666666">[varchar]</text>
<polygon fill="none" stroke="black" points="43.2,-382 43.2,-412.8 328.01,-412.8 328.01,-382 43.2,-382"/>
<text text-anchor="start" x="50.2" y="-394.2" font-family="Arial" font-size="14.00">password </text>
<text text-anchor="start" x="114.01" y="-394.2" font-family="Arial" font-size="14.00" fill="#666666">[varchar]</text>
<polygon fill="none" stroke="black" points="43.2,-351.2 43.2,-382 328.01,-382 328.01,-351.2 43.2,-351.2"/>
<text text-anchor="start" x="50.2" y="-363.4" font-family="Arial" font-size="14.00">fullName </text>
<text text-anchor="start" x="109.33" y="-363.4" font-family="Arial" font-size="14.00" fill="#666666">[varchar]</text>
<polygon fill="none" stroke="black" points="43.2,-320.4 43.2,-351.2 328.01,-351.2 328.01,-320.4 43.2,-320.4"/>
<text text-anchor="start" x="50.2" y="-332.6" font-family="Arial" font-size="14.00">securityQuestion </text>
<text text-anchor="start" x="158.36" y="-332.6" font-family="Arial" font-size="14.00" fill="#666666">[varchar]</text>
<polygon fill="none" stroke="black" points="43.2,-289.6 43.2,-320.4 328.01,-320.4 328.01,-289.6 43.2,-289.6"/>
<text text-anchor="start" x="50.2" y="-301.8" font-family="Arial" font-size="14.00">securityAnswerHash </text>
<text text-anchor="start" x="181.69" y="-301.8" font-family="Arial" font-size="14.00" fill="#666666">[varchar]</text>
<polygon fill="none" stroke="black" points="43.2,-258.8 43.2,-289.6 328.01,-289.6 328.01,-258.8 43.2,-258.8"/>
<text text-anchor="start" x="50.2" y="-271" font-family="Arial" font-size="14.00">role </text>
<text text-anchor="start" x="77.43" y="-271" font-family="Arial" font-size="14.00" fill="#666666">[users_role_enum]</text>
<polygon fill="none" stroke="black" points="43.2,-228 43.2,-258.8 328.01,-258.8 328.01,-228 43.2,-228"/>
<text text-anchor="start" x="50.2" y="-240.2" font-family="Arial" font-size="14.00">isActive </text>
<text text-anchor="start" x="102.32" y="-240.2" font-family="Arial" font-size="14.00" fill="#666666">[boolean]</text>
<polygon fill="none" stroke="black" points="43.2,-197.2 43.2,-228 328.01,-228 328.01,-197.2 43.2,-197.2"/>
<text text-anchor="start" x="50.2" y="-209.4" font-family="Arial" font-size="14.00">suspendedAt </text>
<text text-anchor="start" x="135.82" y="-209.4" font-family="Arial" font-size="14.00" fill="#666666">[timestamp without time zone]</text>
<polygon fill="none" stroke="black" points="43.2,-166.4 43.2,-197.2 328.01,-197.2 328.01,-166.4 43.2,-166.4"/>
<text text-anchor="start" x="50.2" y="-178.6" font-family="Arial" font-size="14.00">isVerified </text>
<text text-anchor="start" x="111.67" y="-178.6" font-family="Arial" font-size="14.00" fill="#666666">[boolean]</text>
<polygon fill="none" stroke="black" points="43.2,-135.6 43.2,-166.4 328.01,-166.4 328.01,-135.6 43.2,-135.6"/>
<text text-anchor="start" x="50.2" y="-147.8" font-family="Arial" font-size="14.00">profileImage </text>
<text text-anchor="start" x="131.13" y="-147.8" font-family="Arial" font-size="14.00" fill="#666666">[varchar]</text>
<polygon fill="none" stroke="black" points="43.2,-104.8 43.2,-135.6 328.01,-135.6 328.01,-104.8 43.2,-104.8"/>
<text text-anchor="start" x="50.2" y="-117" font-family="Arial" font-size="14.00">createdAt </text>
<text text-anchor="start" x="114.01" y="-117" font-family="Arial" font-size="14.00" fill="#666666">[timestamp without time zone]</text>
<polygon fill="none" stroke="black" points="43.2,-74 43.2,-104.8 328.01,-104.8 328.01,-74 43.2,-74"/>
<text text-anchor="start" x="50.2" y="-86.2" font-family="Arial" font-size="14.00">updatedAt </text>
<text text-anchor="start" x="117.92" y="-86.2" font-family="Arial" font-size="14.00" fill="#666666">[timestamp without time zone]</text>
<polygon fill="none" stroke="black" points="43.2,-43.2 43.2,-74 328.01,-74 328.01,-43.2 43.2,-43.2"/>
<text text-anchor="start" x="50.2" y="-55.4" font-family="Arial" font-size="14.00">deletedAt </text>
<text text-anchor="start" x="113.25" y="-55.4" font-family="Arial" font-size="14.00" fill="#666666">[timestamp without time zone]</text>
</g>
<!-- public.audit_logs&#45;&gt;public.users -->
<g id="edge1" class="edge">
<title>public.audit_logs:adminId&#45;&gt;public.users:id</title>
<path fill="none" stroke="black" d="M328.06,-802.77C395.79,-774.43 402.43,-459 329.01,-459"/>
<polygon fill="black" stroke="black" points="328.23,-802.74 317.53,-800.32 323,-803.8 318.76,-804.67 318.76,-804.67 318.76,-804.67 323,-803.8 319.33,-809.14 328.23,-802.74"/>
<text text-anchor="start" x="325.1" y="-814.8" font-family="Arial" font-size="10.00">FOREIGN KEY (&quot;adminId&quot;) REFERENCES users(id)</text>
</g>
</g>
</svg>
