<?xml version="1.0" encoding="UTF-8" standalone="no"?>
<!DOCTYPE svg PUBLIC "-//W3C//DTD SVG 1.1//EN"
 "http://www.w3.org/Graphics/SVG/1.1/DTD/svg11.dtd">
<!-- Generated by graphviz version 12.1.2 (20240928.0832)
 -->
<!-- Title: public.bookings Pages: 1 -->
<svg width="1025pt" height="1156pt"
 viewBox="0.00 0.00 1025.35 1156.40" xmlns="http://www.w3.org/2000/svg" xmlns:xlink="http://www.w3.org/1999/xlink">
<g id="graph0" class="graph" transform="scale(1 1) rotate(0) translate(4 1152.4)">
<title>public.bookings</title>
<polygon fill="white" stroke="none" points="-4,4 -4,-1152.4 1021.35,-1152.4 1021.35,4 -4,4"/>
<!-- public.bookings -->
<g id="node1" class="node">
<title>public.bookings</title>
<polygon fill="#efefef" stroke="none" points="374.38,-1066.6 374.38,-1102.2 641.29,-1102.2 641.29,-1066.6 374.38,-1066.6"/>
<polygon fill="none" stroke="black" points="374.38,-1066.6 374.38,-1102.2 641.29,-1102.2 641.29,-1066.6 374.38,-1066.6"/>
<text text-anchor="start" x="387.84" y="-1080" font-family="Arial Bold" font-size="18.00">public.bookings</text>
<text text-anchor="start" x="503.34" y="-1080" font-family="Arial" font-size="14.00">    </text>
<text text-anchor="start" x="534.46" y="-1080" font-family="Arial" font-size="14.00" fill="#666666">[BASE TABLE]</text>
<polygon fill="none" stroke="black" points="374.38,-1035.8 374.38,-1066.6 641.29,-1066.6 641.29,-1035.8 374.38,-1035.8"/>
<text text-anchor="start" x="381.38" y="-1048" font-family="Arial" font-size="14.00">id </text>
<text text-anchor="start" x="396.17" y="-1048" font-family="Arial" font-size="14.00" fill="#666666">[uuid]</text>
<polygon fill="none" stroke="black" points="374.38,-1005 374.38,-1035.8 641.29,-1035.8 641.29,-1005 374.38,-1005"/>
<text text-anchor="start" x="381.38" y="-1017.2" font-family="Arial" font-size="14.00">customerId </text>
<text text-anchor="start" x="454.52" y="-1017.2" font-family="Arial" font-size="14.00" fill="#666666">[uuid]</text>
<polygon fill="none" stroke="black" points="374.38,-974.2 374.38,-1005 641.29,-1005 641.29,-974.2 374.38,-974.2"/>
<text text-anchor="start" x="381.38" y="-986.4" font-family="Arial" font-size="14.00">vehicleId </text>
<text text-anchor="start" x="440.52" y="-986.4" font-family="Arial" font-size="14.00" fill="#666666">[uuid]</text>
<polygon fill="none" stroke="black" points="374.38,-943.4 374.38,-974.2 641.29,-974.2 641.29,-943.4 374.38,-943.4"/>
<text text-anchor="start" x="381.38" y="-955.6" font-family="Arial" font-size="14.00">startDate </text>
<text text-anchor="start" x="442.07" y="-955.6" font-family="Arial" font-size="14.00" fill="#666666">[timestamp without time zone]</text>
<polygon fill="none" stroke="black" points="374.38,-912.6 374.38,-943.4 641.29,-943.4 641.29,-912.6 374.38,-912.6"/>
<text text-anchor="start" x="381.38" y="-924.8" font-family="Arial" font-size="14.00">endDate </text>
<text text-anchor="start" x="438.2" y="-924.8" font-family="Arial" font-size="14.00" fill="#666666">[timestamp without time zone]</text>
<polygon fill="none" stroke="black" points="374.38,-881.8 374.38,-912.6 641.29,-912.6 641.29,-881.8 374.38,-881.8"/>
<text text-anchor="start" x="381.38" y="-894" font-family="Arial" font-size="14.00">totalPrice </text>
<text text-anchor="start" x="443.63" y="-894" font-family="Arial" font-size="14.00" fill="#666666">[numeric(10,2)]</text>
<polygon fill="none" stroke="black" points="374.38,-851 374.38,-881.8 641.29,-881.8 641.29,-851 374.38,-851"/>
<text text-anchor="start" x="381.38" y="-863.2" font-family="Arial" font-size="14.00">status </text>
<text text-anchor="start" x="422.62" y="-863.2" font-family="Arial" font-size="14.00" fill="#666666">[bookings_status_enum]</text>
<polygon fill="none" stroke="black" points="374.38,-820.2 374.38,-851 641.29,-851 641.29,-820.2 374.38,-820.2"/>
<text text-anchor="start" x="381.38" y="-832.4" font-family="Arial" font-size="14.00">createdAt </text>
<text text-anchor="start" x="445.19" y="-832.4" font-family="Arial" font-size="14.00" fill="#666666">[timestamp without time zone]</text>
<polygon fill="none" stroke="black" points="374.38,-789.4 374.38,-820.2 641.29,-820.2 641.29,-789.4 374.38,-789.4"/>
<text text-anchor="start" x="381.38" y="-801.6" font-family="Arial" font-size="14.00">updatedAt </text>
<text text-anchor="start" x="449.1" y="-801.6" font-family="Arial" font-size="14.00" fill="#666666">[timestamp without time zone]</text>
<polygon fill="none" stroke="black" stroke-width="3" points="372.88,-787.9 372.88,-1103.7 642.79,-1103.7 642.79,-787.9 372.88,-787.9"/>
</g>
<!-- public.users -->
<g id="node2" class="node">
<title>public.users</title>
<polygon fill="#efefef" stroke="none" points="171.43,-551.4 171.43,-587 456.24,-587 456.24,-551.4 171.43,-551.4"/>
<polygon fill="none" stroke="black" points="171.43,-551.4 171.43,-587 456.24,-587 456.24,-551.4 171.43,-551.4"/>
<text text-anchor="start" x="208.35" y="-564.8" font-family="Arial Bold" font-size="18.00">public.users</text>
<text text-anchor="start" x="294.83" y="-564.8" font-family="Arial" font-size="14.00">    </text>
<text text-anchor="start" x="325.95" y="-564.8" font-family="Arial" font-size="14.00" fill="#666666">[BASE TABLE]</text>
<polygon fill="none" stroke="black" points="171.43,-520.6 171.43,-551.4 456.24,-551.4 456.24,-520.6 171.43,-520.6"/>
<text text-anchor="start" x="178.43" y="-532.8" font-family="Arial" font-size="14.00">id </text>
<text text-anchor="start" x="193.22" y="-532.8" font-family="Arial" font-size="14.00" fill="#666666">[uuid]</text>
<polygon fill="none" stroke="black" points="171.43,-489.8 171.43,-520.6 456.24,-520.6 456.24,-489.8 171.43,-489.8"/>
<text text-anchor="start" x="178.43" y="-502" font-family="Arial" font-size="14.00">email </text>
<text text-anchor="start" x="215.78" y="-502" font-family="Arial" font-size="14.00" fill="#666666">[varchar]</text>
<polygon fill="none" stroke="black" points="171.43,-459 171.43,-489.8 456.24,-489.8 456.24,-459 171.43,-459"/>
<text text-anchor="start" x="178.43" y="-471.2" font-family="Arial" font-size="14.00">password </text>
<text text-anchor="start" x="242.24" y="-471.2" font-family="Arial" font-size="14.00" fill="#666666">[varchar]</text>
<polygon fill="none" stroke="black" points="171.43,-428.2 171.43,-459 456.24,-459 456.24,-428.2 171.43,-428.2"/>
<text text-anchor="start" x="178.43" y="-440.4" font-family="Arial" font-size="14.00">fullName </text>
<text text-anchor="start" x="237.56" y="-440.4" font-family="Arial" font-size="14.00" fill="#666666">[varchar]</text>
<polygon fill="none" stroke="black" points="171.43,-397.4 171.43,-428.2 456.24,-428.2 456.24,-397.4 171.43,-397.4"/>
<text text-anchor="start" x="178.43" y="-409.6" font-family="Arial" font-size="14.00">securityQuestion </text>
<text text-anchor="start" x="286.59" y="-409.6" font-family="Arial" font-size="14.00" fill="#666666">[varchar]</text>
<polygon fill="none" stroke="black" points="171.43,-366.6 171.43,-397.4 456.24,-397.4 456.24,-366.6 171.43,-366.6"/>
<text text-anchor="start" x="178.43" y="-378.8" font-family="Arial" font-size="14.00">securityAnswerHash </text>
<text text-anchor="start" x="309.92" y="-378.8" font-family="Arial" font-size="14.00" fill="#666666">[varchar]</text>
<polygon fill="none" stroke="black" points="171.43,-335.8 171.43,-366.6 456.24,-366.6 456.24,-335.8 171.43,-335.8"/>
<text text-anchor="start" x="178.43" y="-348" font-family="Arial" font-size="14.00">role </text>
<text text-anchor="start" x="205.67" y="-348" font-family="Arial" font-size="14.00" fill="#666666">[users_role_enum]</text>
<polygon fill="none" stroke="black" points="171.43,-305 171.43,-335.8 456.24,-335.8 456.24,-305 171.43,-305"/>
<text text-anchor="start" x="178.43" y="-317.2" font-family="Arial" font-size="14.00">isActive </text>
<text text-anchor="start" x="230.56" y="-317.2" font-family="Arial" font-size="14.00" fill="#666666">[boolean]</text>
<polygon fill="none" stroke="black" points="171.43,-274.2 171.43,-305 456.24,-305 456.24,-274.2 171.43,-274.2"/>
<text text-anchor="start" x="178.43" y="-286.4" font-family="Arial" font-size="14.00">suspendedAt </text>
<text text-anchor="start" x="264.05" y="-286.4" font-family="Arial" font-size="14.00" fill="#666666">[timestamp without time zone]</text>
<polygon fill="none" stroke="black" points="171.43,-243.4 171.43,-274.2 456.24,-274.2 456.24,-243.4 171.43,-243.4"/>
<text text-anchor="start" x="178.43" y="-255.6" font-family="Arial" font-size="14.00">isVerified </text>
<text text-anchor="start" x="239.9" y="-255.6" font-family="Arial" font-size="14.00" fill="#666666">[boolean]</text>
<polygon fill="none" stroke="black" points="171.43,-212.6 171.43,-243.4 456.24,-243.4 456.24,-212.6 171.43,-212.6"/>
<text text-anchor="start" x="178.43" y="-224.8" font-family="Arial" font-size="14.00">profileImage </text>
<text text-anchor="start" x="259.36" y="-224.8" font-family="Arial" font-size="14.00" fill="#666666">[varchar]</text>
<polygon fill="none" stroke="black" points="171.43,-181.8 171.43,-212.6 456.24,-212.6 456.24,-181.8 171.43,-181.8"/>
<text text-anchor="start" x="178.43" y="-194" font-family="Arial" font-size="14.00">createdAt </text>
<text text-anchor="start" x="242.25" y="-194" font-family="Arial" font-size="14.00" fill="#666666">[timestamp without time zone]</text>
<polygon fill="none" stroke="black" points="171.43,-151 171.43,-181.8 456.24,-181.8 456.24,-151 171.43,-151"/>
<text text-anchor="start" x="178.43" y="-163.2" font-family="Arial" font-size="14.00">updatedAt </text>
<text text-anchor="start" x="246.16" y="-163.2" font-family="Arial" font-size="14.00" fill="#666666">[timestamp without time zone]</text>
<polygon fill="none" stroke="black" points="171.43,-120.2 171.43,-151 456.24,-151 456.24,-120.2 171.43,-120.2"/>
<text text-anchor="start" x="178.43" y="-132.4" font-family="Arial" font-size="14.00">deletedAt </text>
<text text-anchor="start" x="241.48" y="-132.4" font-family="Arial" font-size="14.00" fill="#666666">[timestamp without time zone]</text>
</g>
<!-- public.bookings&#45;&gt;public.users -->
<g id="edge1" class="edge">
<title>public.bookings:customerId&#45;&gt;public.users:id</title>
<path fill="none" stroke="black" d="M363.08,-1019.99C255.18,-1011.06 337.3,-856.9 374.38,-743.2 393.61,-684.24 436.8,-689.09 456.24,-630.2 469.36,-590.44 499.11,-536 457.24,-536"/>
<polygon fill="black" stroke="black" points="363.05,-1019.99 372.87,-1024.88 368.38,-1020.2 372.71,-1020.37 372.71,-1020.37 372.71,-1020.37 368.38,-1020.2 373.22,-1015.89 363.05,-1019.99"/>
<text text-anchor="start" x="7" y="-1030.4" font-family="Arial" font-size="10.00">FOREIGN KEY (&quot;customerId&quot;) REFERENCES users(id) ON DELETE RESTRICT</text>
</g>
<!-- public.vehicles -->
<g id="node3" class="node">
<title>public.vehicles</title>
<polygon fill="#efefef" stroke="none" points="560.83,-628.4 560.83,-664 844.83,-664 844.83,-628.4 560.83,-628.4"/>
<polygon fill="none" stroke="black" points="560.83,-628.4 560.83,-664 844.83,-664 844.83,-628.4 560.83,-628.4"/>
<text text-anchor="start" x="586.36" y="-641.8" font-family="Arial Bold" font-size="18.00">public.vehicles</text>
<text text-anchor="start" x="694.82" y="-641.8" font-family="Arial" font-size="14.00">    </text>
<text text-anchor="start" x="725.94" y="-641.8" font-family="Arial" font-size="14.00" fill="#666666">[BASE TABLE]</text>
<polygon fill="none" stroke="black" points="560.83,-597.6 560.83,-628.4 844.83,-628.4 844.83,-597.6 560.83,-597.6"/>
<text text-anchor="start" x="567.83" y="-609.8" font-family="Arial" font-size="14.00">id </text>
<text text-anchor="start" x="582.62" y="-609.8" font-family="Arial" font-size="14.00" fill="#666666">[uuid]</text>
<polygon fill="none" stroke="black" points="560.83,-566.8 560.83,-597.6 844.83,-597.6 844.83,-566.8 560.83,-566.8"/>
<text text-anchor="start" x="567.83" y="-579" font-family="Arial" font-size="14.00">ownerId </text>
<text text-anchor="start" x="621.53" y="-579" font-family="Arial" font-size="14.00" fill="#666666">[uuid]</text>
<polygon fill="none" stroke="black" points="560.83,-536 560.83,-566.8 844.83,-566.8 844.83,-536 560.83,-536"/>
<text text-anchor="start" x="567.83" y="-548.2" font-family="Arial" font-size="14.00">brand </text>
<text text-anchor="start" x="607.53" y="-548.2" font-family="Arial" font-size="14.00" fill="#666666">[varchar]</text>
<polygon fill="none" stroke="black" points="560.83,-505.2 560.83,-536 844.83,-536 844.83,-505.2 560.83,-505.2"/>
<text text-anchor="start" x="567.83" y="-517.4" font-family="Arial" font-size="14.00">model </text>
<text text-anchor="start" x="609.86" y="-517.4" font-family="Arial" font-size="14.00" fill="#666666">[varchar]</text>
<polygon fill="none" stroke="black" points="560.83,-474.4 560.83,-505.2 844.83,-505.2 844.83,-474.4 560.83,-474.4"/>
<text text-anchor="start" x="567.83" y="-486.6" font-family="Arial" font-size="14.00">year </text>
<text text-anchor="start" x="598.96" y="-486.6" font-family="Arial" font-size="14.00" fill="#666666">[integer]</text>
<polygon fill="none" stroke="black" points="560.83,-443.6 560.83,-474.4 844.83,-474.4 844.83,-443.6 560.83,-443.6"/>
<text text-anchor="start" x="567.83" y="-455.8" font-family="Arial" font-size="14.00">vin </text>
<text text-anchor="start" x="589.62" y="-455.8" font-family="Arial" font-size="14.00" fill="#666666">[varchar]</text>
<polygon fill="none" stroke="black" points="560.83,-412.8 560.83,-443.6 844.83,-443.6 844.83,-412.8 560.83,-412.8"/>
<text text-anchor="start" x="567.83" y="-425" font-family="Arial" font-size="14.00">dailyPrice </text>
<text text-anchor="start" x="632.41" y="-425" font-family="Arial" font-size="14.00" fill="#666666">[numeric(10,2)]</text>
<polygon fill="none" stroke="black" points="560.83,-382 560.83,-412.8 844.83,-412.8 844.83,-382 560.83,-382"/>
<text text-anchor="start" x="567.83" y="-394.2" font-family="Arial" font-size="14.00">engineType </text>
<text text-anchor="start" x="644.89" y="-394.2" font-family="Arial" font-size="14.00" fill="#666666">[varchar]</text>
<polygon fill="none" stroke="black" points="560.83,-351.2 560.83,-382 844.83,-382 844.83,-351.2 560.83,-351.2"/>
<text text-anchor="start" x="567.83" y="-363.4" font-family="Arial" font-size="14.00">fuelType </text>
<text text-anchor="start" x="625.42" y="-363.4" font-family="Arial" font-size="14.00" fill="#666666">[vehicles_fueltype_enum]</text>
<polygon fill="none" stroke="black" points="560.83,-320.4 560.83,-351.2 844.83,-351.2 844.83,-320.4 560.83,-320.4"/>
<text text-anchor="start" x="567.83" y="-332.6" font-family="Arial" font-size="14.00">transmission </text>
<text text-anchor="start" x="650.3" y="-332.6" font-family="Arial" font-size="14.00" fill="#666666">[vehicles_transmission_enum]</text>
<polygon fill="none" stroke="black" points="560.83,-289.6 560.83,-320.4 844.83,-320.4 844.83,-289.6 560.83,-289.6"/>
<text text-anchor="start" x="567.83" y="-301.8" font-family="Arial" font-size="14.00">latitude </text>
<text text-anchor="start" x="616.87" y="-301.8" font-family="Arial" font-size="14.00" fill="#666666">[numeric(9,6)]</text>
<polygon fill="none" stroke="black" points="560.83,-258.8 560.83,-289.6 844.83,-289.6 844.83,-258.8 560.83,-258.8"/>
<text text-anchor="start" x="567.83" y="-271" font-family="Arial" font-size="14.00">longitude </text>
<text text-anchor="start" x="628.55" y="-271" font-family="Arial" font-size="14.00" fill="#666666">[numeric(9,6)]</text>
<polygon fill="none" stroke="black" points="560.83,-228 560.83,-258.8 844.83,-258.8 844.83,-228 560.83,-228"/>
<text text-anchor="start" x="567.83" y="-240.2" font-family="Arial" font-size="14.00">minRentDays </text>
<text text-anchor="start" x="655.75" y="-240.2" font-family="Arial" font-size="14.00" fill="#666666">[integer]</text>
<polygon fill="none" stroke="black" points="560.83,-197.2 560.83,-228 844.83,-228 844.83,-197.2 560.83,-197.2"/>
<text text-anchor="start" x="567.83" y="-209.4" font-family="Arial" font-size="14.00">maxRentDays </text>
<text text-anchor="start" x="659.64" y="-209.4" font-family="Arial" font-size="14.00" fill="#666666">[integer]</text>
<polygon fill="none" stroke="black" points="560.83,-166.4 560.83,-197.2 844.83,-197.2 844.83,-166.4 560.83,-166.4"/>
<text text-anchor="start" x="567.83" y="-178.6" font-family="Arial" font-size="14.00">isAvailable </text>
<text text-anchor="start" x="638.65" y="-178.6" font-family="Arial" font-size="14.00" fill="#666666">[boolean]</text>
<polygon fill="none" stroke="black" points="560.83,-135.6 560.83,-166.4 844.83,-166.4 844.83,-135.6 560.83,-135.6"/>
<text text-anchor="start" x="567.83" y="-147.8" font-family="Arial" font-size="14.00">images </text>
<text text-anchor="start" x="616.86" y="-147.8" font-family="Arial" font-size="14.00" fill="#666666">[text[]]</text>
<polygon fill="none" stroke="black" points="560.83,-104.8 560.83,-135.6 844.83,-135.6 844.83,-104.8 560.83,-104.8"/>
<text text-anchor="start" x="567.83" y="-117" font-family="Arial" font-size="14.00">createdAt </text>
<text text-anchor="start" x="631.65" y="-117" font-family="Arial" font-size="14.00" fill="#666666">[timestamp without time zone]</text>
<polygon fill="none" stroke="black" points="560.83,-74 560.83,-104.8 844.83,-104.8 844.83,-74 560.83,-74"/>
<text text-anchor="start" x="567.83" y="-86.2" font-family="Arial" font-size="14.00">updatedAt </text>
<text text-anchor="start" x="635.56" y="-86.2" font-family="Arial" font-size="14.00" fill="#666666">[timestamp without time zone]</text>
<polygon fill="none" stroke="black" points="560.83,-43.2 560.83,-74 844.83,-74 844.83,-43.2 560.83,-43.2"/>
<text text-anchor="start" x="567.83" y="-55.4" font-family="Arial" font-size="14.00">deletedAt </text>
<text text-anchor="start" x="630.88" y="-55.4" font-family="Arial" font-size="14.00" fill="#666666">[timestamp without time zone]</text>
</g>
<!-- public.bookings&#45;&gt;public.vehicles -->
<g id="edge2" class="edge">
<title>public.bookings:vehicleId&#45;&gt;public.vehicles:id</title>
<path fill="none" stroke="black" d="M652.67,-989.1C748.42,-979.4 699.05,-831.93 641.29,-743.2 619.92,-710.37 582.31,-739.96 560.83,-707.2 537.88,-672.19 517.97,-613 559.83,-613"/>
<polygon fill="black" stroke="black" points="652.61,-989.1 642.41,-985.09 647.28,-989.36 642.96,-989.57 642.96,-989.57 642.96,-989.57 647.28,-989.36 642.84,-994.08 652.61,-989.1"/>
<text text-anchor="start" x="649.29" y="-999.6" font-family="Arial" font-size="10.00">FOREIGN KEY (&quot;vehicleId&quot;) REFERENCES vehicles(id) ON DELETE RESTRICT</text>
</g>
</g>
</svg>
