<?xml version="1.0" encoding="UTF-8" standalone="no"?>
<!DOCTYPE svg PUBLIC "-//W3C//DTD SVG 1.1//EN"
 "http://www.w3.org/Graphics/SVG/1.1/DTD/svg11.dtd">
<!-- Generated by graphviz version 12.1.2 (20240928.0832)
 -->
<!-- Title: public.reviews Pages: 1 -->
<svg width="996pt" height="1064pt"
 viewBox="0.00 0.00 996.46 1064.00" xmlns="http://www.w3.org/2000/svg" xmlns:xlink="http://www.w3.org/1999/xlink">
<g id="graph0" class="graph" transform="scale(1 1) rotate(0) translate(4 1060)">
<title>public.reviews</title>
<polygon fill="white" stroke="none" points="-4,4 -4,-1060 992.46,-1060 992.46,4 -4,4"/>
<!-- public.reviews -->
<g id="node1" class="node">
<title>public.reviews</title>
<polygon fill="#efefef" stroke="none" points="351.05,-974.2 351.05,-1009.8 614.05,-1009.8 614.05,-974.2 351.05,-974.2"/>
<polygon fill="none" stroke="black" points="351.05,-974.2 351.05,-1009.8 614.05,-1009.8 614.05,-974.2 351.05,-974.2"/>
<text text-anchor="start" x="367.58" y="-987.6" font-family="Arial Bold" font-size="18.00">public.reviews</text>
<text text-anchor="start" x="473.04" y="-987.6" font-family="Arial" font-size="14.00">    </text>
<text text-anchor="start" x="504.16" y="-987.6" font-family="Arial" font-size="14.00" fill="#666666">[BASE TABLE]</text>
<polygon fill="none" stroke="black" points="351.05,-943.4 351.05,-974.2 614.05,-974.2 614.05,-943.4 351.05,-943.4"/>
<text text-anchor="start" x="358.05" y="-955.6" font-family="Arial" font-size="14.00">id </text>
<text text-anchor="start" x="372.84" y="-955.6" font-family="Arial" font-size="14.00" fill="#666666">[uuid]</text>
<polygon fill="none" stroke="black" points="351.05,-912.6 351.05,-943.4 614.05,-943.4 614.05,-912.6 351.05,-912.6"/>
<text text-anchor="start" x="358.05" y="-924.8" font-family="Arial" font-size="14.00">rating </text>
<text text-anchor="start" x="396.96" y="-924.8" font-family="Arial" font-size="14.00" fill="#666666">[integer]</text>
<polygon fill="none" stroke="black" points="351.05,-881.8 351.05,-912.6 614.05,-912.6 614.05,-881.8 351.05,-881.8"/>
<text text-anchor="start" x="358.05" y="-894" font-family="Arial" font-size="14.00">comment </text>
<text text-anchor="start" x="419.52" y="-894" font-family="Arial" font-size="14.00" fill="#666666">[text]</text>
<polygon fill="none" stroke="black" points="351.05,-851 351.05,-881.8 614.05,-881.8 614.05,-851 351.05,-851"/>
<text text-anchor="start" x="358.05" y="-863.2" font-family="Arial" font-size="14.00">userId </text>
<text text-anchor="start" x="400.85" y="-863.2" font-family="Arial" font-size="14.00" fill="#666666">[uuid]</text>
<polygon fill="none" stroke="black" points="351.05,-820.2 351.05,-851 614.05,-851 614.05,-820.2 351.05,-820.2"/>
<text text-anchor="start" x="358.05" y="-832.4" font-family="Arial" font-size="14.00">vehicleId </text>
<text text-anchor="start" x="417.2" y="-832.4" font-family="Arial" font-size="14.00" fill="#666666">[uuid]</text>
<polygon fill="none" stroke="black" points="351.05,-789.4 351.05,-820.2 614.05,-820.2 614.05,-789.4 351.05,-789.4"/>
<text text-anchor="start" x="358.05" y="-801.6" font-family="Arial" font-size="14.00">createdAt </text>
<text text-anchor="start" x="421.87" y="-801.6" font-family="Arial" font-size="14.00" fill="#666666">[timestamp without time zone]</text>
<polygon fill="none" stroke="black" stroke-width="3" points="349.55,-787.9 349.55,-1011.3 615.55,-1011.3 615.55,-787.9 349.55,-787.9"/>
</g>
<!-- public.users -->
<g id="node2" class="node">
<title>public.users</title>
<polygon fill="#efefef" stroke="none" points="146.15,-551.4 146.15,-587 430.96,-587 430.96,-551.4 146.15,-551.4"/>
<polygon fill="none" stroke="black" points="146.15,-551.4 146.15,-587 430.96,-587 430.96,-551.4 146.15,-551.4"/>
<text text-anchor="start" x="183.07" y="-564.8" font-family="Arial Bold" font-size="18.00">public.users</text>
<text text-anchor="start" x="269.55" y="-564.8" font-family="Arial" font-size="14.00">    </text>
<text text-anchor="start" x="300.67" y="-564.8" font-family="Arial" font-size="14.00" fill="#666666">[BASE TABLE]</text>
<polygon fill="none" stroke="black" points="146.15,-520.6 146.15,-551.4 430.96,-551.4 430.96,-520.6 146.15,-520.6"/>
<text text-anchor="start" x="153.15" y="-532.8" font-family="Arial" font-size="14.00">id </text>
<text text-anchor="start" x="167.94" y="-532.8" font-family="Arial" font-size="14.00" fill="#666666">[uuid]</text>
<polygon fill="none" stroke="black" points="146.15,-489.8 146.15,-520.6 430.96,-520.6 430.96,-489.8 146.15,-489.8"/>
<text text-anchor="start" x="153.15" y="-502" font-family="Arial" font-size="14.00">email </text>
<text text-anchor="start" x="190.5" y="-502" font-family="Arial" font-size="14.00" fill="#666666">[varchar]</text>
<polygon fill="none" stroke="black" points="146.15,-459 146.15,-489.8 430.96,-489.8 430.96,-459 146.15,-459"/>
<text text-anchor="start" x="153.15" y="-471.2" font-family="Arial" font-size="14.00">password </text>
<text text-anchor="start" x="216.96" y="-471.2" font-family="Arial" font-size="14.00" fill="#666666">[varchar]</text>
<polygon fill="none" stroke="black" points="146.15,-428.2 146.15,-459 430.96,-459 430.96,-428.2 146.15,-428.2"/>
<text text-anchor="start" x="153.15" y="-440.4" font-family="Arial" font-size="14.00">fullName </text>
<text text-anchor="start" x="212.28" y="-440.4" font-family="Arial" font-size="14.00" fill="#666666">[varchar]</text>
<polygon fill="none" stroke="black" points="146.15,-397.4 146.15,-428.2 430.96,-428.2 430.96,-397.4 146.15,-397.4"/>
<text text-anchor="start" x="153.15" y="-409.6" font-family="Arial" font-size="14.00">securityQuestion </text>
<text text-anchor="start" x="261.31" y="-409.6" font-family="Arial" font-size="14.00" fill="#666666">[varchar]</text>
<polygon fill="none" stroke="black" points="146.15,-366.6 146.15,-397.4 430.96,-397.4 430.96,-366.6 146.15,-366.6"/>
<text text-anchor="start" x="153.15" y="-378.8" font-family="Arial" font-size="14.00">securityAnswerHash </text>
<text text-anchor="start" x="284.64" y="-378.8" font-family="Arial" font-size="14.00" fill="#666666">[varchar]</text>
<polygon fill="none" stroke="black" points="146.15,-335.8 146.15,-366.6 430.96,-366.6 430.96,-335.8 146.15,-335.8"/>
<text text-anchor="start" x="153.15" y="-348" font-family="Arial" font-size="14.00">role </text>
<text text-anchor="start" x="180.39" y="-348" font-family="Arial" font-size="14.00" fill="#666666">[users_role_enum]</text>
<polygon fill="none" stroke="black" points="146.15,-305 146.15,-335.8 430.96,-335.8 430.96,-305 146.15,-305"/>
<text text-anchor="start" x="153.15" y="-317.2" font-family="Arial" font-size="14.00">isActive </text>
<text text-anchor="start" x="205.28" y="-317.2" font-family="Arial" font-size="14.00" fill="#666666">[boolean]</text>
<polygon fill="none" stroke="black" points="146.15,-274.2 146.15,-305 430.96,-305 430.96,-274.2 146.15,-274.2"/>
<text text-anchor="start" x="153.15" y="-286.4" font-family="Arial" font-size="14.00">suspendedAt </text>
<text text-anchor="start" x="238.77" y="-286.4" font-family="Arial" font-size="14.00" fill="#666666">[timestamp without time zone]</text>
<polygon fill="none" stroke="black" points="146.15,-243.4 146.15,-274.2 430.96,-274.2 430.96,-243.4 146.15,-243.4"/>
<text text-anchor="start" x="153.15" y="-255.6" font-family="Arial" font-size="14.00">isVerified </text>
<text text-anchor="start" x="214.62" y="-255.6" font-family="Arial" font-size="14.00" fill="#666666">[boolean]</text>
<polygon fill="none" stroke="black" points="146.15,-212.6 146.15,-243.4 430.96,-243.4 430.96,-212.6 146.15,-212.6"/>
<text text-anchor="start" x="153.15" y="-224.8" font-family="Arial" font-size="14.00">profileImage </text>
<text text-anchor="start" x="234.08" y="-224.8" font-family="Arial" font-size="14.00" fill="#666666">[varchar]</text>
<polygon fill="none" stroke="black" points="146.15,-181.8 146.15,-212.6 430.96,-212.6 430.96,-181.8 146.15,-181.8"/>
<text text-anchor="start" x="153.15" y="-194" font-family="Arial" font-size="14.00">createdAt </text>
<text text-anchor="start" x="216.96" y="-194" font-family="Arial" font-size="14.00" fill="#666666">[timestamp without time zone]</text>
<polygon fill="none" stroke="black" points="146.15,-151 146.15,-181.8 430.96,-181.8 430.96,-151 146.15,-151"/>
<text text-anchor="start" x="153.15" y="-163.2" font-family="Arial" font-size="14.00">updatedAt </text>
<text text-anchor="start" x="220.88" y="-163.2" font-family="Arial" font-size="14.00" fill="#666666">[timestamp without time zone]</text>
<polygon fill="none" stroke="black" points="146.15,-120.2 146.15,-151 430.96,-151 430.96,-120.2 146.15,-120.2"/>
<text text-anchor="start" x="153.15" y="-132.4" font-family="Arial" font-size="14.00">deletedAt </text>
<text text-anchor="start" x="216.2" y="-132.4" font-family="Arial" font-size="14.00" fill="#666666">[timestamp without time zone]</text>
</g>
<!-- public.reviews&#45;&gt;public.users -->
<g id="edge1" class="edge">
<title>public.reviews:userId&#45;&gt;public.users:id</title>
<path fill="none" stroke="black" d="M339.84,-866.03C222.54,-857.1 412.6,-686.9 430.96,-630.2 443.85,-590.37 473.83,-536 431.96,-536"/>
<polygon fill="black" stroke="black" points="339.73,-866.03 349.56,-870.89 345.06,-866.22 349.39,-866.38 349.39,-866.38 349.39,-866.38 345.06,-866.22 349.88,-861.89 339.73,-866.03"/>
<text text-anchor="start" x="7" y="-876.4" font-family="Arial" font-size="10.00">FOREIGN KEY (&quot;userId&quot;) REFERENCES users(id) ON DELETE CASCADE</text>
</g>
<!-- public.vehicles -->
<g id="node3" class="node">
<title>public.vehicles</title>
<polygon fill="#efefef" stroke="none" points="535.55,-628.4 535.55,-664 819.55,-664 819.55,-628.4 535.55,-628.4"/>
<polygon fill="none" stroke="black" points="535.55,-628.4 535.55,-664 819.55,-664 819.55,-628.4 535.55,-628.4"/>
<text text-anchor="start" x="561.08" y="-641.8" font-family="Arial Bold" font-size="18.00">public.vehicles</text>
<text text-anchor="start" x="669.54" y="-641.8" font-family="Arial" font-size="14.00">    </text>
<text text-anchor="start" x="700.66" y="-641.8" font-family="Arial" font-size="14.00" fill="#666666">[BASE TABLE]</text>
<polygon fill="none" stroke="black" points="535.55,-597.6 535.55,-628.4 819.55,-628.4 819.55,-597.6 535.55,-597.6"/>
<text text-anchor="start" x="542.55" y="-609.8" font-family="Arial" font-size="14.00">id </text>
<text text-anchor="start" x="557.34" y="-609.8" font-family="Arial" font-size="14.00" fill="#666666">[uuid]</text>
<polygon fill="none" stroke="black" points="535.55,-566.8 535.55,-597.6 819.55,-597.6 819.55,-566.8 535.55,-566.8"/>
<text text-anchor="start" x="542.55" y="-579" font-family="Arial" font-size="14.00">ownerId </text>
<text text-anchor="start" x="596.25" y="-579" font-family="Arial" font-size="14.00" fill="#666666">[uuid]</text>
<polygon fill="none" stroke="black" points="535.55,-536 535.55,-566.8 819.55,-566.8 819.55,-536 535.55,-536"/>
<text text-anchor="start" x="542.55" y="-548.2" font-family="Arial" font-size="14.00">brand </text>
<text text-anchor="start" x="582.25" y="-548.2" font-family="Arial" font-size="14.00" fill="#666666">[varchar]</text>
<polygon fill="none" stroke="black" points="535.55,-505.2 535.55,-536 819.55,-536 819.55,-505.2 535.55,-505.2"/>
<text text-anchor="start" x="542.55" y="-517.4" font-family="Arial" font-size="14.00">model </text>
<text text-anchor="start" x="584.58" y="-517.4" font-family="Arial" font-size="14.00" fill="#666666">[varchar]</text>
<polygon fill="none" stroke="black" points="535.55,-474.4 535.55,-505.2 819.55,-505.2 819.55,-474.4 535.55,-474.4"/>
<text text-anchor="start" x="542.55" y="-486.6" font-family="Arial" font-size="14.00">year </text>
<text text-anchor="start" x="573.68" y="-486.6" font-family="Arial" font-size="14.00" fill="#666666">[integer]</text>
<polygon fill="none" stroke="black" points="535.55,-443.6 535.55,-474.4 819.55,-474.4 819.55,-443.6 535.55,-443.6"/>
<text text-anchor="start" x="542.55" y="-455.8" font-family="Arial" font-size="14.00">vin </text>
<text text-anchor="start" x="564.34" y="-455.8" font-family="Arial" font-size="14.00" fill="#666666">[varchar]</text>
<polygon fill="none" stroke="black" points="535.55,-412.8 535.55,-443.6 819.55,-443.6 819.55,-412.8 535.55,-412.8"/>
<text text-anchor="start" x="542.55" y="-425" font-family="Arial" font-size="14.00">dailyPrice </text>
<text text-anchor="start" x="607.13" y="-425" font-family="Arial" font-size="14.00" fill="#666666">[numeric(10,2)]</text>
<polygon fill="none" stroke="black" points="535.55,-382 535.55,-412.8 819.55,-412.8 819.55,-382 535.55,-382"/>
<text text-anchor="start" x="542.55" y="-394.2" font-family="Arial" font-size="14.00">engineType </text>
<text text-anchor="start" x="619.61" y="-394.2" font-family="Arial" font-size="14.00" fill="#666666">[varchar]</text>
<polygon fill="none" stroke="black" points="535.55,-351.2 535.55,-382 819.55,-382 819.55,-351.2 535.55,-351.2"/>
<text text-anchor="start" x="542.55" y="-363.4" font-family="Arial" font-size="14.00">fuelType </text>
<text text-anchor="start" x="600.14" y="-363.4" font-family="Arial" font-size="14.00" fill="#666666">[vehicles_fueltype_enum]</text>
<polygon fill="none" stroke="black" points="535.55,-320.4 535.55,-351.2 819.55,-351.2 819.55,-320.4 535.55,-320.4"/>
<text text-anchor="start" x="542.55" y="-332.6" font-family="Arial" font-size="14.00">transmission </text>
<text text-anchor="start" x="625.02" y="-332.6" font-family="Arial" font-size="14.00" fill="#666666">[vehicles_transmission_enum]</text>
<polygon fill="none" stroke="black" points="535.55,-289.6 535.55,-320.4 819.55,-320.4 819.55,-289.6 535.55,-289.6"/>
<text text-anchor="start" x="542.55" y="-301.8" font-family="Arial" font-size="14.00">latitude </text>
<text text-anchor="start" x="591.59" y="-301.8" font-family="Arial" font-size="14.00" fill="#666666">[numeric(9,6)]</text>
<polygon fill="none" stroke="black" points="535.55,-258.8 535.55,-289.6 819.55,-289.6 819.55,-258.8 535.55,-258.8"/>
<text text-anchor="start" x="542.55" y="-271" font-family="Arial" font-size="14.00">longitude </text>
<text text-anchor="start" x="603.27" y="-271" font-family="Arial" font-size="14.00" fill="#666666">[numeric(9,6)]</text>
<polygon fill="none" stroke="black" points="535.55,-228 535.55,-258.8 819.55,-258.8 819.55,-228 535.55,-228"/>
<text text-anchor="start" x="542.55" y="-240.2" font-family="Arial" font-size="14.00">minRentDays </text>
<text text-anchor="start" x="630.47" y="-240.2" font-family="Arial" font-size="14.00" fill="#666666">[integer]</text>
<polygon fill="none" stroke="black" points="535.55,-197.2 535.55,-228 819.55,-228 819.55,-197.2 535.55,-197.2"/>
<text text-anchor="start" x="542.55" y="-209.4" font-family="Arial" font-size="14.00">maxRentDays </text>
<text text-anchor="start" x="634.36" y="-209.4" font-family="Arial" font-size="14.00" fill="#666666">[integer]</text>
<polygon fill="none" stroke="black" points="535.55,-166.4 535.55,-197.2 819.55,-197.2 819.55,-166.4 535.55,-166.4"/>
<text text-anchor="start" x="542.55" y="-178.6" font-family="Arial" font-size="14.00">isAvailable </text>
<text text-anchor="start" x="613.37" y="-178.6" font-family="Arial" font-size="14.00" fill="#666666">[boolean]</text>
<polygon fill="none" stroke="black" points="535.55,-135.6 535.55,-166.4 819.55,-166.4 819.55,-135.6 535.55,-135.6"/>
<text text-anchor="start" x="542.55" y="-147.8" font-family="Arial" font-size="14.00">images </text>
<text text-anchor="start" x="591.58" y="-147.8" font-family="Arial" font-size="14.00" fill="#666666">[text[]]</text>
<polygon fill="none" stroke="black" points="535.55,-104.8 535.55,-135.6 819.55,-135.6 819.55,-104.8 535.55,-104.8"/>
<text text-anchor="start" x="542.55" y="-117" font-family="Arial" font-size="14.00">createdAt </text>
<text text-anchor="start" x="606.37" y="-117" font-family="Arial" font-size="14.00" fill="#666666">[timestamp without time zone]</text>
<polygon fill="none" stroke="black" points="535.55,-74 535.55,-104.8 819.55,-104.8 819.55,-74 535.55,-74"/>
<text text-anchor="start" x="542.55" y="-86.2" font-family="Arial" font-size="14.00">updatedAt </text>
<text text-anchor="start" x="610.28" y="-86.2" font-family="Arial" font-size="14.00" fill="#666666">[timestamp without time zone]</text>
<polygon fill="none" stroke="black" points="535.55,-43.2 535.55,-74 819.55,-74 819.55,-43.2 535.55,-43.2"/>
<text text-anchor="start" x="542.55" y="-55.4" font-family="Arial" font-size="14.00">deletedAt </text>
<text text-anchor="start" x="605.6" y="-55.4" font-family="Arial" font-size="14.00" fill="#666666">[timestamp without time zone]</text>
</g>
<!-- public.reviews&#45;&gt;public.vehicles -->
<g id="edge2" class="edge">
<title>public.reviews:vehicleId&#45;&gt;public.vehicles:id</title>
<path fill="none" stroke="black" d="M625.05,-834.14C652.4,-824.94 634.32,-774.42 614.05,-743.2 593.15,-711.01 556.45,-739.4 535.55,-707.2 512.76,-672.08 492.69,-613 534.55,-613"/>
<polygon fill="black" stroke="black" points="625.28,-834.11 614.73,-831.1 620,-834.88 615.72,-835.5 615.72,-835.5 615.72,-835.5 620,-834.88 616.04,-840 625.28,-834.11"/>
<text text-anchor="start" x="622.05" y="-845.6" font-family="Arial" font-size="10.00">FOREIGN KEY (&quot;vehicleId&quot;) REFERENCES vehicles(id) ON DELETE CASCADE</text>
</g>
</g>
</svg>
