<?xml version="1.0" encoding="UTF-8" standalone="no"?>
<!DOCTYPE svg PUBLIC "-//W3C//DTD SVG 1.1//EN"
 "http://www.w3.org/Graphics/SVG/1.1/DTD/svg11.dtd">
<!-- Generated by graphviz version 12.1.2 (20240928.0832)
 -->
<!-- Title: public.wallets Pages: 1 -->
<svg width="696pt" height="1499pt"
 viewBox="0.00 0.00 695.52 1499.20" xmlns="http://www.w3.org/2000/svg" xmlns:xlink="http://www.w3.org/1999/xlink">
<g id="graph0" class="graph" transform="scale(1 1) rotate(0) translate(4 1495.2)">
<title>public.wallets</title>
<polygon fill="white" stroke="none" points="-4,4 -4,-1495.2 691.52,-1495.2 691.52,4 -4,4"/>
<!-- public.wallets -->
<g id="node1" class="node">
<title>public.wallets</title>
<polygon fill="#efefef" stroke="none" points="52.15,-1005 52.15,-1040.6 319.06,-1040.6 319.06,-1005 52.15,-1005"/>
<polygon fill="none" stroke="black" points="52.15,-1005 52.15,-1040.6 319.06,-1040.6 319.06,-1005 52.15,-1005"/>
<text text-anchor="start" x="73.12" y="-1018.4" font-family="Arial Bold" font-size="18.00">public.wallets</text>
<text text-anchor="start" x="173.6" y="-1018.4" font-family="Arial" font-size="14.00">    </text>
<text text-anchor="start" x="204.71" y="-1018.4" font-family="Arial" font-size="14.00" fill="#666666">[BASE TABLE]</text>
<polygon fill="none" stroke="black" points="52.15,-974.2 52.15,-1005 319.06,-1005 319.06,-974.2 52.15,-974.2"/>
<text text-anchor="start" x="59.15" y="-986.4" font-family="Arial" font-size="14.00">id </text>
<text text-anchor="start" x="73.93" y="-986.4" font-family="Arial" font-size="14.00" fill="#666666">[uuid]</text>
<polygon fill="none" stroke="black" points="52.15,-943.4 52.15,-974.2 319.06,-974.2 319.06,-943.4 52.15,-943.4"/>
<text text-anchor="start" x="59.15" y="-955.6" font-family="Arial" font-size="14.00">userId </text>
<text text-anchor="start" x="101.95" y="-955.6" font-family="Arial" font-size="14.00" fill="#666666">[uuid]</text>
<polygon fill="none" stroke="black" points="52.15,-912.6 52.15,-943.4 319.06,-943.4 319.06,-912.6 52.15,-912.6"/>
<text text-anchor="start" x="59.15" y="-924.8" font-family="Arial" font-size="14.00">balance </text>
<text text-anchor="start" x="112.08" y="-924.8" font-family="Arial" font-size="14.00" fill="#666666">[numeric(12,2)]</text>
<polygon fill="none" stroke="black" points="52.15,-881.8 52.15,-912.6 319.06,-912.6 319.06,-881.8 52.15,-881.8"/>
<text text-anchor="start" x="59.15" y="-894" font-family="Arial" font-size="14.00">verificationAttempts </text>
<text text-anchor="start" x="185.2" y="-894" font-family="Arial" font-size="14.00" fill="#666666">[integer]</text>
<polygon fill="none" stroke="black" points="52.15,-851 52.15,-881.8 319.06,-881.8 319.06,-851 52.15,-851"/>
<text text-anchor="start" x="59.15" y="-863.2" font-family="Arial" font-size="14.00">bankName </text>
<text text-anchor="start" x="130.74" y="-863.2" font-family="Arial" font-size="14.00" fill="#666666">[varchar(100)]</text>
<polygon fill="none" stroke="black" points="52.15,-820.2 52.15,-851 319.06,-851 319.06,-820.2 52.15,-820.2"/>
<text text-anchor="start" x="59.15" y="-832.4" font-family="Arial" font-size="14.00">accountNumber </text>
<text text-anchor="start" x="161.87" y="-832.4" font-family="Arial" font-size="14.00" fill="#666666">[varchar(50)]</text>
<polygon fill="none" stroke="black" points="52.15,-789.4 52.15,-820.2 319.06,-820.2 319.06,-789.4 52.15,-789.4"/>
<text text-anchor="start" x="59.15" y="-801.6" font-family="Arial" font-size="14.00">accountName </text>
<text text-anchor="start" x="149.42" y="-801.6" font-family="Arial" font-size="14.00" fill="#666666">[varchar(150)]</text>
<polygon fill="none" stroke="black" points="52.15,-758.6 52.15,-789.4 319.06,-789.4 319.06,-758.6 52.15,-758.6"/>
<text text-anchor="start" x="59.15" y="-770.8" font-family="Arial" font-size="14.00">isBankVerified </text>
<text text-anchor="start" x="152.53" y="-770.8" font-family="Arial" font-size="14.00" fill="#666666">[boolean]</text>
<polygon fill="none" stroke="black" points="52.15,-727.8 52.15,-758.6 319.06,-758.6 319.06,-727.8 52.15,-727.8"/>
<text text-anchor="start" x="59.15" y="-740" font-family="Arial" font-size="14.00">gatewayBankToken </text>
<text text-anchor="start" x="186" y="-740" font-family="Arial" font-size="14.00" fill="#666666">[varchar(100)]</text>
<polygon fill="none" stroke="black" points="52.15,-697 52.15,-727.8 319.06,-727.8 319.06,-697 52.15,-697"/>
<text text-anchor="start" x="59.15" y="-709.2" font-family="Arial" font-size="14.00">microDeposits </text>
<text text-anchor="start" x="151.73" y="-709.2" font-family="Arial" font-size="14.00" fill="#666666">[text]</text>
<polygon fill="none" stroke="black" points="52.15,-666.2 52.15,-697 319.06,-697 319.06,-666.2 52.15,-666.2"/>
<text text-anchor="start" x="59.15" y="-678.4" font-family="Arial" font-size="14.00">pendingBalance </text>
<text text-anchor="start" x="163.46" y="-678.4" font-family="Arial" font-size="14.00" fill="#666666">[numeric(12,2)]</text>
<polygon fill="none" stroke="black" points="52.15,-635.4 52.15,-666.2 319.06,-666.2 319.06,-635.4 52.15,-635.4"/>
<text text-anchor="start" x="59.15" y="-647.6" font-family="Arial" font-size="14.00">updatedAt </text>
<text text-anchor="start" x="126.87" y="-647.6" font-family="Arial" font-size="14.00" fill="#666666">[timestamp without time zone]</text>
<polygon fill="none" stroke="black" stroke-width="3" points="50.65,-633.9 50.65,-1042.1 320.56,-1042.1 320.56,-633.9 50.65,-633.9"/>
</g>
<!-- public.users -->
<g id="node3" class="node">
<title>public.users</title>
<polygon fill="#efefef" stroke="none" points="43.2,-474.4 43.2,-510 328.01,-510 328.01,-474.4 43.2,-474.4"/>
<polygon fill="none" stroke="black" points="43.2,-474.4 43.2,-510 328.01,-510 328.01,-474.4 43.2,-474.4"/>
<text text-anchor="start" x="80.12" y="-487.8" font-family="Arial Bold" font-size="18.00">public.users</text>
<text text-anchor="start" x="166.6" y="-487.8" font-family="Arial" font-size="14.00">    </text>
<text text-anchor="start" x="197.72" y="-487.8" font-family="Arial" font-size="14.00" fill="#666666">[BASE TABLE]</text>
<polygon fill="none" stroke="black" points="43.2,-443.6 43.2,-474.4 328.01,-474.4 328.01,-443.6 43.2,-443.6"/>
<text text-anchor="start" x="50.2" y="-455.8" font-family="Arial" font-size="14.00">id </text>
<text text-anchor="start" x="64.99" y="-455.8" font-family="Arial" font-size="14.00" fill="#666666">[uuid]</text>
<polygon fill="none" stroke="black" points="43.2,-412.8 43.2,-443.6 328.01,-443.6 328.01,-412.8 43.2,-412.8"/>
<text text-anchor="start" x="50.2" y="-425" font-family="Arial" font-size="14.00">email </text>
<text text-anchor="start" x="87.54" y="-425" font-family="Arial" font-size="14.00" fill="#666666">[varchar]</text>
<polygon fill="none" stroke="black" points="43.2,-382 43.2,-412.8 328.01,-412.8 328.01,-382 43.2,-382"/>
<text text-anchor="start" x="50.2" y="-394.2" font-family="Arial" font-size="14.00">password </text>
<text text-anchor="start" x="114.01" y="-394.2" font-family="Arial" font-size="14.00" fill="#666666">[varchar]</text>
<polygon fill="none" stroke="black" points="43.2,-351.2 43.2,-382 328.01,-382 328.01,-351.2 43.2,-351.2"/>
<text text-anchor="start" x="50.2" y="-363.4" font-family="Arial" font-size="14.00">fullName </text>
<text text-anchor="start" x="109.33" y="-363.4" font-family="Arial" font-size="14.00" fill="#666666">[varchar]</text>
<polygon fill="none" stroke="black" points="43.2,-320.4 43.2,-351.2 328.01,-351.2 328.01,-320.4 43.2,-320.4"/>
<text text-anchor="start" x="50.2" y="-332.6" font-family="Arial" font-size="14.00">securityQuestion </text>
<text text-anchor="start" x="158.36" y="-332.6" font-family="Arial" font-size="14.00" fill="#666666">[varchar]</text>
<polygon fill="none" stroke="black" points="43.2,-289.6 43.2,-320.4 328.01,-320.4 328.01,-289.6 43.2,-289.6"/>
<text text-anchor="start" x="50.2" y="-301.8" font-family="Arial" font-size="14.00">securityAnswerHash </text>
<text text-anchor="start" x="181.69" y="-301.8" font-family="Arial" font-size="14.00" fill="#666666">[varchar]</text>
<polygon fill="none" stroke="black" points="43.2,-258.8 43.2,-289.6 328.01,-289.6 328.01,-258.8 43.2,-258.8"/>
<text text-anchor="start" x="50.2" y="-271" font-family="Arial" font-size="14.00">role </text>
<text text-anchor="start" x="77.43" y="-271" font-family="Arial" font-size="14.00" fill="#666666">[users_role_enum]</text>
<polygon fill="none" stroke="black" points="43.2,-228 43.2,-258.8 328.01,-258.8 328.01,-228 43.2,-228"/>
<text text-anchor="start" x="50.2" y="-240.2" font-family="Arial" font-size="14.00">isActive </text>
<text text-anchor="start" x="102.32" y="-240.2" font-family="Arial" font-size="14.00" fill="#666666">[boolean]</text>
<polygon fill="none" stroke="black" points="43.2,-197.2 43.2,-228 328.01,-228 328.01,-197.2 43.2,-197.2"/>
<text text-anchor="start" x="50.2" y="-209.4" font-family="Arial" font-size="14.00">suspendedAt </text>
<text text-anchor="start" x="135.82" y="-209.4" font-family="Arial" font-size="14.00" fill="#666666">[timestamp without time zone]</text>
<polygon fill="none" stroke="black" points="43.2,-166.4 43.2,-197.2 328.01,-197.2 328.01,-166.4 43.2,-166.4"/>
<text text-anchor="start" x="50.2" y="-178.6" font-family="Arial" font-size="14.00">isVerified </text>
<text text-anchor="start" x="111.67" y="-178.6" font-family="Arial" font-size="14.00" fill="#666666">[boolean]</text>
<polygon fill="none" stroke="black" points="43.2,-135.6 43.2,-166.4 328.01,-166.4 328.01,-135.6 43.2,-135.6"/>
<text text-anchor="start" x="50.2" y="-147.8" font-family="Arial" font-size="14.00">profileImage </text>
<text text-anchor="start" x="131.13" y="-147.8" font-family="Arial" font-size="14.00" fill="#666666">[varchar]</text>
<polygon fill="none" stroke="black" points="43.2,-104.8 43.2,-135.6 328.01,-135.6 328.01,-104.8 43.2,-104.8"/>
<text text-anchor="start" x="50.2" y="-117" font-family="Arial" font-size="14.00">createdAt </text>
<text text-anchor="start" x="114.01" y="-117" font-family="Arial" font-size="14.00" fill="#666666">[timestamp without time zone]</text>
<polygon fill="none" stroke="black" points="43.2,-74 43.2,-104.8 328.01,-104.8 328.01,-74 43.2,-74"/>
<text text-anchor="start" x="50.2" y="-86.2" font-family="Arial" font-size="14.00">updatedAt </text>
<text text-anchor="start" x="117.92" y="-86.2" font-family="Arial" font-size="14.00" fill="#666666">[timestamp without time zone]</text>
<polygon fill="none" stroke="black" points="43.2,-43.2 43.2,-74 328.01,-74 328.01,-43.2 43.2,-43.2"/>
<text text-anchor="start" x="50.2" y="-55.4" font-family="Arial" font-size="14.00">deletedAt </text>
<text text-anchor="start" x="113.25" y="-55.4" font-family="Arial" font-size="14.00" fill="#666666">[timestamp without time zone]</text>
</g>
<!-- public.wallets&#45;&gt;public.users -->
<g id="edge2" class="edge">
<title>public.wallets:userId&#45;&gt;public.users:id</title>
<path fill="none" stroke="black" d="M330.17,-957.37C431.58,-928.05 436.62,-459 329.01,-459"/>
<polygon fill="black" stroke="black" points="330.29,-957.35 319.76,-954.3 325.01,-958.1 320.72,-958.71 320.72,-958.71 320.72,-958.71 325.01,-958.1 321.02,-963.21 330.29,-957.35"/>
<text text-anchor="start" x="327.06" y="-968.8" font-family="Arial" font-size="10.00">FOREIGN KEY (&quot;userId&quot;) REFERENCES users(id) ON DELETE CASCADE</text>
</g>
<!-- public.transactions -->
<g id="node2" class="node">
<title>public.transactions</title>
<polygon fill="#efefef" stroke="none" points="48.63,-1412.4 48.63,-1448 322.58,-1448 322.58,-1412.4 48.63,-1412.4"/>
<polygon fill="none" stroke="black" points="48.63,-1412.4 48.63,-1448 322.58,-1448 322.58,-1412.4 48.63,-1412.4"/>
<text text-anchor="start" x="55.63" y="-1425.8" font-family="Arial Bold" font-size="18.00">public.transactions</text>
<text text-anchor="start" x="191.09" y="-1425.8" font-family="Arial" font-size="14.00">    </text>
<text text-anchor="start" x="222.21" y="-1425.8" font-family="Arial" font-size="14.00" fill="#666666">[BASE TABLE]</text>
<polygon fill="none" stroke="black" points="48.63,-1381.6 48.63,-1412.4 322.58,-1412.4 322.58,-1381.6 48.63,-1381.6"/>
<text text-anchor="start" x="55.63" y="-1393.8" font-family="Arial" font-size="14.00">id </text>
<text text-anchor="start" x="70.41" y="-1393.8" font-family="Arial" font-size="14.00" fill="#666666">[uuid]</text>
<polygon fill="none" stroke="black" points="48.63,-1350.8 48.63,-1381.6 322.58,-1381.6 322.58,-1350.8 48.63,-1350.8"/>
<text text-anchor="start" x="55.63" y="-1363" font-family="Arial" font-size="14.00">walletId </text>
<text text-anchor="start" x="106.98" y="-1363" font-family="Arial" font-size="14.00" fill="#666666">[uuid]</text>
<polygon fill="none" stroke="black" points="48.63,-1320 48.63,-1350.8 322.58,-1350.8 322.58,-1320 48.63,-1320"/>
<text text-anchor="start" x="55.63" y="-1332.2" font-family="Arial" font-size="14.00">amount </text>
<text text-anchor="start" x="106.21" y="-1332.2" font-family="Arial" font-size="14.00" fill="#666666">[numeric(12,2)]</text>
<polygon fill="none" stroke="black" points="48.63,-1289.2 48.63,-1320 322.58,-1320 322.58,-1289.2 48.63,-1289.2"/>
<text text-anchor="start" x="55.63" y="-1301.4" font-family="Arial" font-size="14.00">type </text>
<text text-anchor="start" x="85.98" y="-1301.4" font-family="Arial" font-size="14.00" fill="#666666">[transactions_type_enum]</text>
<polygon fill="none" stroke="black" points="48.63,-1258.4 48.63,-1289.2 322.58,-1289.2 322.58,-1258.4 48.63,-1258.4"/>
<text text-anchor="start" x="55.63" y="-1270.6" font-family="Arial" font-size="14.00">status </text>
<text text-anchor="start" x="96.87" y="-1270.6" font-family="Arial" font-size="14.00" fill="#666666">[transactions_status_enum]</text>
<polygon fill="none" stroke="black" points="48.63,-1227.6 48.63,-1258.4 322.58,-1258.4 322.58,-1227.6 48.63,-1227.6"/>
<text text-anchor="start" x="55.63" y="-1239.8" font-family="Arial" font-size="14.00">description </text>
<text text-anchor="start" x="127.22" y="-1239.8" font-family="Arial" font-size="14.00" fill="#666666">[varchar(255)]</text>
<polygon fill="none" stroke="black" points="48.63,-1196.8 48.63,-1227.6 322.58,-1227.6 322.58,-1196.8 48.63,-1196.8"/>
<text text-anchor="start" x="55.63" y="-1209" font-family="Arial" font-size="14.00">reference </text>
<text text-anchor="start" x="118.66" y="-1209" font-family="Arial" font-size="14.00" fill="#666666">[varchar]</text>
<polygon fill="none" stroke="black" points="48.63,-1166 48.63,-1196.8 322.58,-1196.8 322.58,-1166 48.63,-1166"/>
<text text-anchor="start" x="55.63" y="-1178.2" font-family="Arial" font-size="14.00">createdAt </text>
<text text-anchor="start" x="119.44" y="-1178.2" font-family="Arial" font-size="14.00" fill="#666666">[timestamp without time zone]</text>
</g>
<!-- public.transactions&#45;&gt;public.wallets -->
<g id="edge1" class="edge">
<title>public.transactions:walletId&#45;&gt;public.wallets:id</title>
<path fill="none" stroke="black" d="M333.44,-1364.35C406.85,-1335.94 400.32,-989.6 320.06,-989.6"/>
<polygon fill="black" stroke="black" points="333.74,-1364.3 323.08,-1361.72 328.49,-1365.28 324.24,-1366.08 324.24,-1366.08 324.24,-1366.08 328.49,-1365.28 324.74,-1370.56 333.74,-1364.3"/>
<text text-anchor="start" x="330.58" y="-1376.2" font-family="Arial" font-size="10.00">FOREIGN KEY (&quot;walletId&quot;) REFERENCES wallets(id) ON DELETE RESTRICT</text>
</g>
</g>
</svg>
