<?xml version="1.0" encoding="UTF-8" standalone="no"?>
<!DOCTYPE svg PUBLIC "-//W3C//DTD SVG 1.1//EN"
 "http://www.w3.org/Graphics/SVG/1.1/DTD/svg11.dtd">
<!-- Generated by graphviz version 12.1.2 (20240928.0832)
 -->
<!-- Title: public.transactions Pages: 1 -->
<svg width="693pt" height="910pt"
 viewBox="0.00 0.00 693.09 910.00" xmlns="http://www.w3.org/2000/svg" xmlns:xlink="http://www.w3.org/1999/xlink">
<g id="graph0" class="graph" transform="scale(1 1) rotate(0) translate(4 906)">
<title>public.transactions</title>
<polygon fill="white" stroke="none" points="-4,4 -4,-906 689.09,-906 689.09,4 -4,4"/>
<!-- public.transactions -->
<g id="node1" class="node">
<title>public.transactions</title>
<polygon fill="#efefef" stroke="none" points="46.2,-820.2 46.2,-855.8 320.16,-855.8 320.16,-820.2 46.2,-820.2"/>
<polygon fill="none" stroke="black" points="46.2,-820.2 46.2,-855.8 320.16,-855.8 320.16,-820.2 46.2,-820.2"/>
<text text-anchor="start" x="53.2" y="-833.6" font-family="Arial Bold" font-size="18.00">public.transactions</text>
<text text-anchor="start" x="188.67" y="-833.6" font-family="Arial" font-size="14.00">    </text>
<text text-anchor="start" x="219.78" y="-833.6" font-family="Arial" font-size="14.00" fill="#666666">[BASE TABLE]</text>
<polygon fill="none" stroke="black" points="46.2,-789.4 46.2,-820.2 320.16,-820.2 320.16,-789.4 46.2,-789.4"/>
<text text-anchor="start" x="53.2" y="-801.6" font-family="Arial" font-size="14.00">id </text>
<text text-anchor="start" x="67.99" y="-801.6" font-family="Arial" font-size="14.00" fill="#666666">[uuid]</text>
<polygon fill="none" stroke="black" points="46.2,-758.6 46.2,-789.4 320.16,-789.4 320.16,-758.6 46.2,-758.6"/>
<text text-anchor="start" x="53.2" y="-770.8" font-family="Arial" font-size="14.00">walletId </text>
<text text-anchor="start" x="104.56" y="-770.8" font-family="Arial" font-size="14.00" fill="#666666">[uuid]</text>
<polygon fill="none" stroke="black" points="46.2,-727.8 46.2,-758.6 320.16,-758.6 320.16,-727.8 46.2,-727.8"/>
<text text-anchor="start" x="53.2" y="-740" font-family="Arial" font-size="14.00">amount </text>
<text text-anchor="start" x="103.79" y="-740" font-family="Arial" font-size="14.00" fill="#666666">[numeric(12,2)]</text>
<polygon fill="none" stroke="black" points="46.2,-697 46.2,-727.8 320.16,-727.8 320.16,-697 46.2,-697"/>
<text text-anchor="start" x="53.2" y="-709.2" font-family="Arial" font-size="14.00">type </text>
<text text-anchor="start" x="83.55" y="-709.2" font-family="Arial" font-size="14.00" fill="#666666">[transactions_type_enum]</text>
<polygon fill="none" stroke="black" points="46.2,-666.2 46.2,-697 320.16,-697 320.16,-666.2 46.2,-666.2"/>
<text text-anchor="start" x="53.2" y="-678.4" font-family="Arial" font-size="14.00">status </text>
<text text-anchor="start" x="94.44" y="-678.4" font-family="Arial" font-size="14.00" fill="#666666">[transactions_status_enum]</text>
<polygon fill="none" stroke="black" points="46.2,-635.4 46.2,-666.2 320.16,-666.2 320.16,-635.4 46.2,-635.4"/>
<text text-anchor="start" x="53.2" y="-647.6" font-family="Arial" font-size="14.00">description </text>
<text text-anchor="start" x="124.79" y="-647.6" font-family="Arial" font-size="14.00" fill="#666666">[varchar(255)]</text>
<polygon fill="none" stroke="black" points="46.2,-604.6 46.2,-635.4 320.16,-635.4 320.16,-604.6 46.2,-604.6"/>
<text text-anchor="start" x="53.2" y="-616.8" font-family="Arial" font-size="14.00">reference </text>
<text text-anchor="start" x="116.23" y="-616.8" font-family="Arial" font-size="14.00" fill="#666666">[varchar]</text>
<polygon fill="none" stroke="black" points="46.2,-573.8 46.2,-604.6 320.16,-604.6 320.16,-573.8 46.2,-573.8"/>
<text text-anchor="start" x="53.2" y="-586" font-family="Arial" font-size="14.00">createdAt </text>
<text text-anchor="start" x="117.01" y="-586" font-family="Arial" font-size="14.00" fill="#666666">[timestamp without time zone]</text>
<polygon fill="none" stroke="black" stroke-width="3" points="44.7,-572.3 44.7,-857.3 321.66,-857.3 321.66,-572.3 44.7,-572.3"/>
</g>
<!-- public.wallets -->
<g id="node2" class="node">
<title>public.wallets</title>
<polygon fill="#efefef" stroke="none" points="49.72,-412.8 49.72,-448.4 316.63,-448.4 316.63,-412.8 49.72,-412.8"/>
<polygon fill="none" stroke="black" points="49.72,-412.8 49.72,-448.4 316.63,-448.4 316.63,-412.8 49.72,-412.8"/>
<text text-anchor="start" x="70.69" y="-426.2" font-family="Arial Bold" font-size="18.00">public.wallets</text>
<text text-anchor="start" x="171.17" y="-426.2" font-family="Arial" font-size="14.00">    </text>
<text text-anchor="start" x="202.29" y="-426.2" font-family="Arial" font-size="14.00" fill="#666666">[BASE TABLE]</text>
<polygon fill="none" stroke="black" points="49.72,-382 49.72,-412.8 316.63,-412.8 316.63,-382 49.72,-382"/>
<text text-anchor="start" x="56.72" y="-394.2" font-family="Arial" font-size="14.00">id </text>
<text text-anchor="start" x="71.51" y="-394.2" font-family="Arial" font-size="14.00" fill="#666666">[uuid]</text>
<polygon fill="none" stroke="black" points="49.72,-351.2 49.72,-382 316.63,-382 316.63,-351.2 49.72,-351.2"/>
<text text-anchor="start" x="56.72" y="-363.4" font-family="Arial" font-size="14.00">userId </text>
<text text-anchor="start" x="99.52" y="-363.4" font-family="Arial" font-size="14.00" fill="#666666">[uuid]</text>
<polygon fill="none" stroke="black" points="49.72,-320.4 49.72,-351.2 316.63,-351.2 316.63,-320.4 49.72,-320.4"/>
<text text-anchor="start" x="56.72" y="-332.6" font-family="Arial" font-size="14.00">balance </text>
<text text-anchor="start" x="109.65" y="-332.6" font-family="Arial" font-size="14.00" fill="#666666">[numeric(12,2)]</text>
<polygon fill="none" stroke="black" points="49.72,-289.6 49.72,-320.4 316.63,-320.4 316.63,-289.6 49.72,-289.6"/>
<text text-anchor="start" x="56.72" y="-301.8" font-family="Arial" font-size="14.00">verificationAttempts </text>
<text text-anchor="start" x="182.77" y="-301.8" font-family="Arial" font-size="14.00" fill="#666666">[integer]</text>
<polygon fill="none" stroke="black" points="49.72,-258.8 49.72,-289.6 316.63,-289.6 316.63,-258.8 49.72,-258.8"/>
<text text-anchor="start" x="56.72" y="-271" font-family="Arial" font-size="14.00">bankName </text>
<text text-anchor="start" x="128.32" y="-271" font-family="Arial" font-size="14.00" fill="#666666">[varchar(100)]</text>
<polygon fill="none" stroke="black" points="49.72,-228 49.72,-258.8 316.63,-258.8 316.63,-228 49.72,-228"/>
<text text-anchor="start" x="56.72" y="-240.2" font-family="Arial" font-size="14.00">accountNumber </text>
<text text-anchor="start" x="159.44" y="-240.2" font-family="Arial" font-size="14.00" fill="#666666">[varchar(50)]</text>
<polygon fill="none" stroke="black" points="49.72,-197.2 49.72,-228 316.63,-228 316.63,-197.2 49.72,-197.2"/>
<text text-anchor="start" x="56.72" y="-209.4" font-family="Arial" font-size="14.00">accountName </text>
<text text-anchor="start" x="146.99" y="-209.4" font-family="Arial" font-size="14.00" fill="#666666">[varchar(150)]</text>
<polygon fill="none" stroke="black" points="49.72,-166.4 49.72,-197.2 316.63,-197.2 316.63,-166.4 49.72,-166.4"/>
<text text-anchor="start" x="56.72" y="-178.6" font-family="Arial" font-size="14.00">isBankVerified </text>
<text text-anchor="start" x="150.1" y="-178.6" font-family="Arial" font-size="14.00" fill="#666666">[boolean]</text>
<polygon fill="none" stroke="black" points="49.72,-135.6 49.72,-166.4 316.63,-166.4 316.63,-135.6 49.72,-135.6"/>
<text text-anchor="start" x="56.72" y="-147.8" font-family="Arial" font-size="14.00">gatewayBankToken </text>
<text text-anchor="start" x="183.58" y="-147.8" font-family="Arial" font-size="14.00" fill="#666666">[varchar(100)]</text>
<polygon fill="none" stroke="black" points="49.72,-104.8 49.72,-135.6 316.63,-135.6 316.63,-104.8 49.72,-104.8"/>
<text text-anchor="start" x="56.72" y="-117" font-family="Arial" font-size="14.00">microDeposits </text>
<text text-anchor="start" x="149.3" y="-117" font-family="Arial" font-size="14.00" fill="#666666">[text]</text>
<polygon fill="none" stroke="black" points="49.72,-74 49.72,-104.8 316.63,-104.8 316.63,-74 49.72,-74"/>
<text text-anchor="start" x="56.72" y="-86.2" font-family="Arial" font-size="14.00">pendingBalance </text>
<text text-anchor="start" x="161.03" y="-86.2" font-family="Arial" font-size="14.00" fill="#666666">[numeric(12,2)]</text>
<polygon fill="none" stroke="black" points="49.72,-43.2 49.72,-74 316.63,-74 316.63,-43.2 49.72,-43.2"/>
<text text-anchor="start" x="56.72" y="-55.4" font-family="Arial" font-size="14.00">updatedAt </text>
<text text-anchor="start" x="124.45" y="-55.4" font-family="Arial" font-size="14.00" fill="#666666">[timestamp without time zone]</text>
</g>
<!-- public.transactions&#45;&gt;public.wallets -->
<g id="edge1" class="edge">
<title>public.transactions:walletId&#45;&gt;public.wallets:id</title>
<path fill="none" stroke="black" d="M331.01,-772.15C404.42,-743.74 397.89,-397.4 317.63,-397.4"/>
<polygon fill="black" stroke="black" points="331.31,-772.1 320.65,-769.52 326.07,-773.08 321.81,-773.88 321.81,-773.88 321.81,-773.88 326.07,-773.08 322.31,-778.36 331.31,-772.1"/>
<text text-anchor="start" x="328.16" y="-784" font-family="Arial" font-size="10.00">FOREIGN KEY (&quot;walletId&quot;) REFERENCES wallets(id) ON DELETE RESTRICT</text>
</g>
</g>
</svg>
