<?xml version="1.0" encoding="UTF-8" standalone="no"?>
<!DOCTYPE svg PUBLIC "-//W3C//DTD SVG 1.1//EN"
 "http://www.w3.org/Graphics/SVG/1.1/DTD/svg11.dtd">
<!-- Generated by graphviz version 12.1.2 (20240928.0832)
 -->
<!-- Title: car_lease_api Pages: 1 -->
<svg width="1560pt" height="1740pt"
 viewBox="0.00 0.00 1560.28 1739.60" xmlns="http://www.w3.org/2000/svg" xmlns:xlink="http://www.w3.org/1999/xlink">
<g id="graph0" class="graph" transform="scale(1 1) rotate(0) translate(4 1735.6)">
<title>car_lease_api</title>
<polygon fill="white" stroke="none" points="-4,4 -4,-1735.6 1556.28,-1735.6 1556.28,4 -4,4"/>
<!-- public.users -->
<g id="node1" class="node">
<title>public.users</title>
<polygon fill="#efefef" stroke="none" points="524.2,-474.4 524.2,-510 809.01,-510 809.01,-474.4 524.2,-474.4"/>
<polygon fill="none" stroke="black" points="524.2,-474.4 524.2,-510 809.01,-510 809.01,-474.4 524.2,-474.4"/>
<text text-anchor="start" x="561.12" y="-487.8" font-family="Arial Bold" font-size="18.00">public.users</text>
<text text-anchor="start" x="647.6" y="-487.8" font-family="Arial" font-size="14.00">    </text>
<text text-anchor="start" x="678.72" y="-487.8" font-family="Arial" font-size="14.00" fill="#666666">[BASE TABLE]</text>
<polygon fill="none" stroke="black" points="524.2,-443.6 524.2,-474.4 809.01,-474.4 809.01,-443.6 524.2,-443.6"/>
<text text-anchor="start" x="531.2" y="-455.8" font-family="Arial" font-size="14.00">id </text>
<text text-anchor="start" x="545.99" y="-455.8" font-family="Arial" font-size="14.00" fill="#666666">[uuid]</text>
<polygon fill="none" stroke="black" points="524.2,-412.8 524.2,-443.6 809.01,-443.6 809.01,-412.8 524.2,-412.8"/>
<text text-anchor="start" x="531.2" y="-425" font-family="Arial" font-size="14.00">email </text>
<text text-anchor="start" x="568.55" y="-425" font-family="Arial" font-size="14.00" fill="#666666">[varchar]</text>
<polygon fill="none" stroke="black" points="524.2,-382 524.2,-412.8 809.01,-412.8 809.01,-382 524.2,-382"/>
<text text-anchor="start" x="531.2" y="-394.2" font-family="Arial" font-size="14.00">password </text>
<text text-anchor="start" x="595.01" y="-394.2" font-family="Arial" font-size="14.00" fill="#666666">[varchar]</text>
<polygon fill="none" stroke="black" points="524.2,-351.2 524.2,-382 809.01,-382 809.01,-351.2 524.2,-351.2"/>
<text text-anchor="start" x="531.2" y="-363.4" font-family="Arial" font-size="14.00">fullName </text>
<text text-anchor="start" x="590.33" y="-363.4" font-family="Arial" font-size="14.00" fill="#666666">[varchar]</text>
<polygon fill="none" stroke="black" points="524.2,-320.4 524.2,-351.2 809.01,-351.2 809.01,-320.4 524.2,-320.4"/>
<text text-anchor="start" x="531.2" y="-332.6" font-family="Arial" font-size="14.00">securityQuestion </text>
<text text-anchor="start" x="639.36" y="-332.6" font-family="Arial" font-size="14.00" fill="#666666">[varchar]</text>
<polygon fill="none" stroke="black" points="524.2,-289.6 524.2,-320.4 809.01,-320.4 809.01,-289.6 524.2,-289.6"/>
<text text-anchor="start" x="531.2" y="-301.8" font-family="Arial" font-size="14.00">securityAnswerHash </text>
<text text-anchor="start" x="662.69" y="-301.8" font-family="Arial" font-size="14.00" fill="#666666">[varchar]</text>
<polygon fill="none" stroke="black" points="524.2,-258.8 524.2,-289.6 809.01,-289.6 809.01,-258.8 524.2,-258.8"/>
<text text-anchor="start" x="531.2" y="-271" font-family="Arial" font-size="14.00">role </text>
<text text-anchor="start" x="558.44" y="-271" font-family="Arial" font-size="14.00" fill="#666666">[users_role_enum]</text>
<polygon fill="none" stroke="black" points="524.2,-228 524.2,-258.8 809.01,-258.8 809.01,-228 524.2,-228"/>
<text text-anchor="start" x="531.2" y="-240.2" font-family="Arial" font-size="14.00">isActive </text>
<text text-anchor="start" x="583.33" y="-240.2" font-family="Arial" font-size="14.00" fill="#666666">[boolean]</text>
<polygon fill="none" stroke="black" points="524.2,-197.2 524.2,-228 809.01,-228 809.01,-197.2 524.2,-197.2"/>
<text text-anchor="start" x="531.2" y="-209.4" font-family="Arial" font-size="14.00">suspendedAt </text>
<text text-anchor="start" x="616.82" y="-209.4" font-family="Arial" font-size="14.00" fill="#666666">[timestamp without time zone]</text>
<polygon fill="none" stroke="black" points="524.2,-166.4 524.2,-197.2 809.01,-197.2 809.01,-166.4 524.2,-166.4"/>
<text text-anchor="start" x="531.2" y="-178.6" font-family="Arial" font-size="14.00">isVerified </text>
<text text-anchor="start" x="592.67" y="-178.6" font-family="Arial" font-size="14.00" fill="#666666">[boolean]</text>
<polygon fill="none" stroke="black" points="524.2,-135.6 524.2,-166.4 809.01,-166.4 809.01,-135.6 524.2,-135.6"/>
<text text-anchor="start" x="531.2" y="-147.8" font-family="Arial" font-size="14.00">profileImage </text>
<text text-anchor="start" x="612.13" y="-147.8" font-family="Arial" font-size="14.00" fill="#666666">[varchar]</text>
<polygon fill="none" stroke="black" points="524.2,-104.8 524.2,-135.6 809.01,-135.6 809.01,-104.8 524.2,-104.8"/>
<text text-anchor="start" x="531.2" y="-117" font-family="Arial" font-size="14.00">createdAt </text>
<text text-anchor="start" x="595.02" y="-117" font-family="Arial" font-size="14.00" fill="#666666">[timestamp without time zone]</text>
<polygon fill="none" stroke="black" points="524.2,-74 524.2,-104.8 809.01,-104.8 809.01,-74 524.2,-74"/>
<text text-anchor="start" x="531.2" y="-86.2" font-family="Arial" font-size="14.00">updatedAt </text>
<text text-anchor="start" x="598.93" y="-86.2" font-family="Arial" font-size="14.00" fill="#666666">[timestamp without time zone]</text>
<polygon fill="none" stroke="black" points="524.2,-43.2 524.2,-74 809.01,-74 809.01,-43.2 524.2,-43.2"/>
<text text-anchor="start" x="531.2" y="-55.4" font-family="Arial" font-size="14.00">deletedAt </text>
<text text-anchor="start" x="594.25" y="-55.4" font-family="Arial" font-size="14.00" fill="#666666">[timestamp without time zone]</text>
</g>
<!-- public.vehicles -->
<g id="node2" class="node">
<title>public.vehicles</title>
<polygon fill="#efefef" stroke="none" points="311.61,-1217.6 311.61,-1253.2 595.6,-1253.2 595.6,-1217.6 311.61,-1217.6"/>
<polygon fill="none" stroke="black" points="311.61,-1217.6 311.61,-1253.2 595.6,-1253.2 595.6,-1217.6 311.61,-1217.6"/>
<text text-anchor="start" x="337.13" y="-1231" font-family="Arial Bold" font-size="18.00">public.vehicles</text>
<text text-anchor="start" x="445.59" y="-1231" font-family="Arial" font-size="14.00">    </text>
<text text-anchor="start" x="476.71" y="-1231" font-family="Arial" font-size="14.00" fill="#666666">[BASE TABLE]</text>
<polygon fill="none" stroke="black" points="311.61,-1186.8 311.61,-1217.6 595.6,-1217.6 595.6,-1186.8 311.61,-1186.8"/>
<text text-anchor="start" x="318.61" y="-1199" font-family="Arial" font-size="14.00">id </text>
<text text-anchor="start" x="333.39" y="-1199" font-family="Arial" font-size="14.00" fill="#666666">[uuid]</text>
<polygon fill="none" stroke="black" points="311.61,-1156 311.61,-1186.8 595.6,-1186.8 595.6,-1156 311.61,-1156"/>
<text text-anchor="start" x="318.61" y="-1168.2" font-family="Arial" font-size="14.00">ownerId </text>
<text text-anchor="start" x="372.3" y="-1168.2" font-family="Arial" font-size="14.00" fill="#666666">[uuid]</text>
<polygon fill="none" stroke="black" points="311.61,-1125.2 311.61,-1156 595.6,-1156 595.6,-1125.2 311.61,-1125.2"/>
<text text-anchor="start" x="318.61" y="-1137.4" font-family="Arial" font-size="14.00">brand </text>
<text text-anchor="start" x="358.3" y="-1137.4" font-family="Arial" font-size="14.00" fill="#666666">[varchar]</text>
<polygon fill="none" stroke="black" points="311.61,-1094.4 311.61,-1125.2 595.6,-1125.2 595.6,-1094.4 311.61,-1094.4"/>
<text text-anchor="start" x="318.61" y="-1106.6" font-family="Arial" font-size="14.00">model </text>
<text text-anchor="start" x="360.63" y="-1106.6" font-family="Arial" font-size="14.00" fill="#666666">[varchar]</text>
<polygon fill="none" stroke="black" points="311.61,-1063.6 311.61,-1094.4 595.6,-1094.4 595.6,-1063.6 311.61,-1063.6"/>
<text text-anchor="start" x="318.61" y="-1075.8" font-family="Arial" font-size="14.00">year </text>
<text text-anchor="start" x="349.73" y="-1075.8" font-family="Arial" font-size="14.00" fill="#666666">[integer]</text>
<polygon fill="none" stroke="black" points="311.61,-1032.8 311.61,-1063.6 595.6,-1063.6 595.6,-1032.8 311.61,-1032.8"/>
<text text-anchor="start" x="318.61" y="-1045" font-family="Arial" font-size="14.00">vin </text>
<text text-anchor="start" x="340.39" y="-1045" font-family="Arial" font-size="14.00" fill="#666666">[varchar]</text>
<polygon fill="none" stroke="black" points="311.61,-1002 311.61,-1032.8 595.6,-1032.8 595.6,-1002 311.61,-1002"/>
<text text-anchor="start" x="318.61" y="-1014.2" font-family="Arial" font-size="14.00">dailyPrice </text>
<text text-anchor="start" x="383.18" y="-1014.2" font-family="Arial" font-size="14.00" fill="#666666">[numeric(10,2)]</text>
<polygon fill="none" stroke="black" points="311.61,-971.2 311.61,-1002 595.6,-1002 595.6,-971.2 311.61,-971.2"/>
<text text-anchor="start" x="318.61" y="-983.4" font-family="Arial" font-size="14.00">engineType </text>
<text text-anchor="start" x="395.66" y="-983.4" font-family="Arial" font-size="14.00" fill="#666666">[varchar]</text>
<polygon fill="none" stroke="black" points="311.61,-940.4 311.61,-971.2 595.6,-971.2 595.6,-940.4 311.61,-940.4"/>
<text text-anchor="start" x="318.61" y="-952.6" font-family="Arial" font-size="14.00">fuelType </text>
<text text-anchor="start" x="376.19" y="-952.6" font-family="Arial" font-size="14.00" fill="#666666">[vehicles_fueltype_enum]</text>
<polygon fill="none" stroke="black" points="311.61,-909.6 311.61,-940.4 595.6,-940.4 595.6,-909.6 311.61,-909.6"/>
<text text-anchor="start" x="318.61" y="-921.8" font-family="Arial" font-size="14.00">transmission </text>
<text text-anchor="start" x="401.07" y="-921.8" font-family="Arial" font-size="14.00" fill="#666666">[vehicles_transmission_enum]</text>
<polygon fill="none" stroke="black" points="311.61,-878.8 311.61,-909.6 595.6,-909.6 595.6,-878.8 311.61,-878.8"/>
<text text-anchor="start" x="318.61" y="-891" font-family="Arial" font-size="14.00">latitude </text>
<text text-anchor="start" x="367.64" y="-891" font-family="Arial" font-size="14.00" fill="#666666">[numeric(9,6)]</text>
<polygon fill="none" stroke="black" points="311.61,-848 311.61,-878.8 595.6,-878.8 595.6,-848 311.61,-848"/>
<text text-anchor="start" x="318.61" y="-860.2" font-family="Arial" font-size="14.00">longitude </text>
<text text-anchor="start" x="379.32" y="-860.2" font-family="Arial" font-size="14.00" fill="#666666">[numeric(9,6)]</text>
<polygon fill="none" stroke="black" points="311.61,-817.2 311.61,-848 595.6,-848 595.6,-817.2 311.61,-817.2"/>
<text text-anchor="start" x="318.61" y="-829.4" font-family="Arial" font-size="14.00">minRentDays </text>
<text text-anchor="start" x="406.52" y="-829.4" font-family="Arial" font-size="14.00" fill="#666666">[integer]</text>
<polygon fill="none" stroke="black" points="311.61,-786.4 311.61,-817.2 595.6,-817.2 595.6,-786.4 311.61,-786.4"/>
<text text-anchor="start" x="318.61" y="-798.6" font-family="Arial" font-size="14.00">maxRentDays </text>
<text text-anchor="start" x="410.41" y="-798.6" font-family="Arial" font-size="14.00" fill="#666666">[integer]</text>
<polygon fill="none" stroke="black" points="311.61,-755.6 311.61,-786.4 595.6,-786.4 595.6,-755.6 311.61,-755.6"/>
<text text-anchor="start" x="318.61" y="-767.8" font-family="Arial" font-size="14.00">isAvailable </text>
<text text-anchor="start" x="389.42" y="-767.8" font-family="Arial" font-size="14.00" fill="#666666">[boolean]</text>
<polygon fill="none" stroke="black" points="311.61,-724.8 311.61,-755.6 595.6,-755.6 595.6,-724.8 311.61,-724.8"/>
<text text-anchor="start" x="318.61" y="-737" font-family="Arial" font-size="14.00">images </text>
<text text-anchor="start" x="367.63" y="-737" font-family="Arial" font-size="14.00" fill="#666666">[text[]]</text>
<polygon fill="none" stroke="black" points="311.61,-694 311.61,-724.8 595.6,-724.8 595.6,-694 311.61,-694"/>
<text text-anchor="start" x="318.61" y="-706.2" font-family="Arial" font-size="14.00">createdAt </text>
<text text-anchor="start" x="382.42" y="-706.2" font-family="Arial" font-size="14.00" fill="#666666">[timestamp without time zone]</text>
<polygon fill="none" stroke="black" points="311.61,-663.2 311.61,-694 595.6,-694 595.6,-663.2 311.61,-663.2"/>
<text text-anchor="start" x="318.61" y="-675.4" font-family="Arial" font-size="14.00">updatedAt </text>
<text text-anchor="start" x="386.33" y="-675.4" font-family="Arial" font-size="14.00" fill="#666666">[timestamp without time zone]</text>
<polygon fill="none" stroke="black" points="311.61,-632.4 311.61,-663.2 595.6,-663.2 595.6,-632.4 311.61,-632.4"/>
<text text-anchor="start" x="318.61" y="-644.6" font-family="Arial" font-size="14.00">deletedAt </text>
<text text-anchor="start" x="381.65" y="-644.6" font-family="Arial" font-size="14.00" fill="#666666">[timestamp without time zone]</text>
</g>
<!-- public.vehicles&#45;&gt;public.users -->
<g id="edge1" class="edge">
<title>public.vehicles:ownerId&#45;&gt;public.users:id</title>
<path fill="none" stroke="black" d="M606.05,-1167.15C657.94,-1117.12 627.78,-641.35 595.6,-589.2 576.94,-558.95 543,-583.36 524.2,-553.2 502.06,-517.66 481.33,-459 523.2,-459"/>
<polygon fill="black" stroke="black" points="606.03,-1167.16 595.06,-1167.16 601.16,-1169.35 597.21,-1171.13 597.21,-1171.13 597.21,-1171.13 601.16,-1169.35 598.76,-1175.37 606.03,-1167.16"/>
<text text-anchor="start" x="603.6" y="-1181.4" font-family="Arial" font-size="10.00">FOREIGN KEY (&quot;ownerId&quot;) REFERENCES users(id) ON DELETE CASCADE</text>
</g>
<!-- public.bookings -->
<g id="node3" class="node">
<title>public.bookings</title>
<polygon fill="#efefef" stroke="none" points="107.15,-1652.8 107.15,-1688.4 374.06,-1688.4 374.06,-1652.8 107.15,-1652.8"/>
<polygon fill="none" stroke="black" points="107.15,-1652.8 107.15,-1688.4 374.06,-1688.4 374.06,-1652.8 107.15,-1652.8"/>
<text text-anchor="start" x="120.61" y="-1666.2" font-family="Arial Bold" font-size="18.00">public.bookings</text>
<text text-anchor="start" x="236.11" y="-1666.2" font-family="Arial" font-size="14.00">    </text>
<text text-anchor="start" x="267.23" y="-1666.2" font-family="Arial" font-size="14.00" fill="#666666">[BASE TABLE]</text>
<polygon fill="none" stroke="black" points="107.15,-1622 107.15,-1652.8 374.06,-1652.8 374.06,-1622 107.15,-1622"/>
<text text-anchor="start" x="114.15" y="-1634.2" font-family="Arial" font-size="14.00">id </text>
<text text-anchor="start" x="128.94" y="-1634.2" font-family="Arial" font-size="14.00" fill="#666666">[uuid]</text>
<polygon fill="none" stroke="black" points="107.15,-1591.2 107.15,-1622 374.06,-1622 374.06,-1591.2 107.15,-1591.2"/>
<text text-anchor="start" x="114.15" y="-1603.4" font-family="Arial" font-size="14.00">customerId </text>
<text text-anchor="start" x="187.29" y="-1603.4" font-family="Arial" font-size="14.00" fill="#666666">[uuid]</text>
<polygon fill="none" stroke="black" points="107.15,-1560.4 107.15,-1591.2 374.06,-1591.2 374.06,-1560.4 107.15,-1560.4"/>
<text text-anchor="start" x="114.15" y="-1572.6" font-family="Arial" font-size="14.00">vehicleId </text>
<text text-anchor="start" x="173.29" y="-1572.6" font-family="Arial" font-size="14.00" fill="#666666">[uuid]</text>
<polygon fill="none" stroke="black" points="107.15,-1529.6 107.15,-1560.4 374.06,-1560.4 374.06,-1529.6 107.15,-1529.6"/>
<text text-anchor="start" x="114.15" y="-1541.8" font-family="Arial" font-size="14.00">startDate </text>
<text text-anchor="start" x="174.84" y="-1541.8" font-family="Arial" font-size="14.00" fill="#666666">[timestamp without time zone]</text>
<polygon fill="none" stroke="black" points="107.15,-1498.8 107.15,-1529.6 374.06,-1529.6 374.06,-1498.8 107.15,-1498.8"/>
<text text-anchor="start" x="114.15" y="-1511" font-family="Arial" font-size="14.00">endDate </text>
<text text-anchor="start" x="170.97" y="-1511" font-family="Arial" font-size="14.00" fill="#666666">[timestamp without time zone]</text>
<polygon fill="none" stroke="black" points="107.15,-1468 107.15,-1498.8 374.06,-1498.8 374.06,-1468 107.15,-1468"/>
<text text-anchor="start" x="114.15" y="-1480.2" font-family="Arial" font-size="14.00">totalPrice </text>
<text text-anchor="start" x="176.4" y="-1480.2" font-family="Arial" font-size="14.00" fill="#666666">[numeric(10,2)]</text>
<polygon fill="none" stroke="black" points="107.15,-1437.2 107.15,-1468 374.06,-1468 374.06,-1437.2 107.15,-1437.2"/>
<text text-anchor="start" x="114.15" y="-1449.4" font-family="Arial" font-size="14.00">status </text>
<text text-anchor="start" x="155.39" y="-1449.4" font-family="Arial" font-size="14.00" fill="#666666">[bookings_status_enum]</text>
<polygon fill="none" stroke="black" points="107.15,-1406.4 107.15,-1437.2 374.06,-1437.2 374.06,-1406.4 107.15,-1406.4"/>
<text text-anchor="start" x="114.15" y="-1418.6" font-family="Arial" font-size="14.00">createdAt </text>
<text text-anchor="start" x="177.96" y="-1418.6" font-family="Arial" font-size="14.00" fill="#666666">[timestamp without time zone]</text>
<polygon fill="none" stroke="black" points="107.15,-1375.6 107.15,-1406.4 374.06,-1406.4 374.06,-1375.6 107.15,-1375.6"/>
<text text-anchor="start" x="114.15" y="-1387.8" font-family="Arial" font-size="14.00">updatedAt </text>
<text text-anchor="start" x="181.87" y="-1387.8" font-family="Arial" font-size="14.00" fill="#666666">[timestamp without time zone]</text>
</g>
<!-- public.bookings&#45;&gt;public.users -->
<g id="edge2" class="edge">
<title>public.bookings:customerId&#45;&gt;public.users:id</title>
<path fill="none" stroke="black" d="M385.19,-1604.21C432.83,-1579.98 408.01,-1378.49 374.06,-1332.4 342.43,-1289.46 291.15,-1339.39 259.6,-1296.4 73.66,-1042.99 93.71,-856.17 259.6,-589.2 328.57,-478.22 392.54,-459 523.2,-459"/>
<polygon fill="black" stroke="black" points="385.12,-1604.23 374.35,-1602.14 379.93,-1605.45 375.71,-1606.45 375.71,-1606.45 375.71,-1606.45 379.93,-1605.45 376.42,-1610.9 385.12,-1604.23"/>
<text text-anchor="start" x="8.68" y="-1616.6" font-family="Arial" font-size="10.00">FOREIGN KEY (&quot;customerId&quot;) REFERENCES users(id) ON DELETE RESTRICT</text>
</g>
<!-- public.bookings&#45;&gt;public.vehicles -->
<g id="edge3" class="edge">
<title>public.bookings:vehicleId&#45;&gt;public.vehicles:id</title>
<path fill="none" stroke="black" d="M385.03,-1573.15C425.33,-1549.62 399.36,-1375.98 374.06,-1332.4 357.97,-1304.69 327.78,-1324.06 311.61,-1296.4 290.47,-1260.26 268.74,-1202.2 310.61,-1202.2"/>
<polygon fill="black" stroke="black" points="385.05,-1573.15 374.23,-1571.36 379.89,-1574.52 375.71,-1575.63 375.71,-1575.63 375.71,-1575.63 379.89,-1574.52 376.54,-1580.06 385.05,-1573.15"/>
<text text-anchor="start" x="7" y="-1585.8" font-family="Arial" font-size="10.00">FOREIGN KEY (&quot;vehicleId&quot;) REFERENCES vehicles(id) ON DELETE RESTRICT</text>
</g>
<!-- public.reviews -->
<g id="node4" class="node">
<title>public.reviews</title>
<polygon fill="#efefef" stroke="none" points="478.11,-1606.6 478.11,-1642.2 741.1,-1642.2 741.1,-1606.6 478.11,-1606.6"/>
<polygon fill="none" stroke="black" points="478.11,-1606.6 478.11,-1642.2 741.1,-1642.2 741.1,-1606.6 478.11,-1606.6"/>
<text text-anchor="start" x="494.63" y="-1620" font-family="Arial Bold" font-size="18.00">public.reviews</text>
<text text-anchor="start" x="600.09" y="-1620" font-family="Arial" font-size="14.00">    </text>
<text text-anchor="start" x="631.21" y="-1620" font-family="Arial" font-size="14.00" fill="#666666">[BASE TABLE]</text>
<polygon fill="none" stroke="black" points="478.11,-1575.8 478.11,-1606.6 741.1,-1606.6 741.1,-1575.8 478.11,-1575.8"/>
<text text-anchor="start" x="485.11" y="-1588" font-family="Arial" font-size="14.00">id </text>
<text text-anchor="start" x="499.89" y="-1588" font-family="Arial" font-size="14.00" fill="#666666">[uuid]</text>
<polygon fill="none" stroke="black" points="478.11,-1545 478.11,-1575.8 741.1,-1575.8 741.1,-1545 478.11,-1545"/>
<text text-anchor="start" x="485.11" y="-1557.2" font-family="Arial" font-size="14.00">rating </text>
<text text-anchor="start" x="524.02" y="-1557.2" font-family="Arial" font-size="14.00" fill="#666666">[integer]</text>
<polygon fill="none" stroke="black" points="478.11,-1514.2 478.11,-1545 741.1,-1545 741.1,-1514.2 478.11,-1514.2"/>
<text text-anchor="start" x="485.11" y="-1526.4" font-family="Arial" font-size="14.00">comment </text>
<text text-anchor="start" x="546.57" y="-1526.4" font-family="Arial" font-size="14.00" fill="#666666">[text]</text>
<polygon fill="none" stroke="black" points="478.11,-1483.4 478.11,-1514.2 741.1,-1514.2 741.1,-1483.4 478.11,-1483.4"/>
<text text-anchor="start" x="485.11" y="-1495.6" font-family="Arial" font-size="14.00">userId </text>
<text text-anchor="start" x="527.91" y="-1495.6" font-family="Arial" font-size="14.00" fill="#666666">[uuid]</text>
<polygon fill="none" stroke="black" points="478.11,-1452.6 478.11,-1483.4 741.1,-1483.4 741.1,-1452.6 478.11,-1452.6"/>
<text text-anchor="start" x="485.11" y="-1464.8" font-family="Arial" font-size="14.00">vehicleId </text>
<text text-anchor="start" x="544.25" y="-1464.8" font-family="Arial" font-size="14.00" fill="#666666">[uuid]</text>
<polygon fill="none" stroke="black" points="478.11,-1421.8 478.11,-1452.6 741.1,-1452.6 741.1,-1421.8 478.11,-1421.8"/>
<text text-anchor="start" x="485.11" y="-1434" font-family="Arial" font-size="14.00">createdAt </text>
<text text-anchor="start" x="548.92" y="-1434" font-family="Arial" font-size="14.00" fill="#666666">[timestamp without time zone]</text>
</g>
<!-- public.reviews&#45;&gt;public.users -->
<g id="edge4" class="edge">
<title>public.reviews:userId&#45;&gt;public.users:id</title>
<path fill="none" stroke="black" d="M752.38,-1498.36C861.63,-1488.31 689.98,-1310.71 685.6,-1296.4 662.61,-1221.26 638.46,-652.06 685.6,-589.2 719.88,-543.49 774.49,-598.72 809.01,-553.2 834.31,-519.84 851.88,-459 810.01,-459"/>
<polygon fill="black" stroke="black" points="752.43,-1498.35 742.24,-1494.29 747.1,-1498.58 742.77,-1498.77 742.77,-1498.77 742.77,-1498.77 747.1,-1498.58 742.63,-1503.28 752.43,-1498.35"/>
<text text-anchor="start" x="399.05" y="-1508.8" font-family="Arial" font-size="10.00">FOREIGN KEY (&quot;userId&quot;) REFERENCES users(id) ON DELETE CASCADE</text>
</g>
<!-- public.reviews&#45;&gt;public.vehicles -->
<g id="edge5" class="edge">
<title>public.reviews:vehicleId&#45;&gt;public.vehicles:id</title>
<path fill="none" stroke="black" d="M466.85,-1466.4C441.84,-1457.18 461.44,-1410.17 478.11,-1378.6 507.86,-1322.24 565.86,-1352.77 595.6,-1296.4 615.14,-1259.37 638.47,-1202.2 596.6,-1202.2"/>
<polygon fill="black" stroke="black" points="466.89,-1466.41 476.08,-1472.39 472.17,-1467.23 476.44,-1467.9 476.44,-1467.9 476.44,-1467.9 472.17,-1467.23 477.47,-1463.5 466.89,-1466.41"/>
<text text-anchor="start" x="204.05" y="-1452" font-family="Arial" font-size="10.00">FOREIGN KEY (&quot;vehicleId&quot;) REFERENCES vehicles(id) ON DELETE CASCADE</text>
</g>
<!-- public.transactions -->
<g id="node5" class="node">
<title>public.transactions</title>
<polygon fill="#efefef" stroke="none" points="845.63,-1637.4 845.63,-1673 1119.58,-1673 1119.58,-1637.4 845.63,-1637.4"/>
<polygon fill="none" stroke="black" points="845.63,-1637.4 845.63,-1673 1119.58,-1673 1119.58,-1637.4 845.63,-1637.4"/>
<text text-anchor="start" x="852.63" y="-1650.8" font-family="Arial Bold" font-size="18.00">public.transactions</text>
<text text-anchor="start" x="988.09" y="-1650.8" font-family="Arial" font-size="14.00">    </text>
<text text-anchor="start" x="1019.21" y="-1650.8" font-family="Arial" font-size="14.00" fill="#666666">[BASE TABLE]</text>
<polygon fill="none" stroke="black" points="845.63,-1606.6 845.63,-1637.4 1119.58,-1637.4 1119.58,-1606.6 845.63,-1606.6"/>
<text text-anchor="start" x="852.63" y="-1618.8" font-family="Arial" font-size="14.00">id </text>
<text text-anchor="start" x="867.41" y="-1618.8" font-family="Arial" font-size="14.00" fill="#666666">[uuid]</text>
<polygon fill="none" stroke="black" points="845.63,-1575.8 845.63,-1606.6 1119.58,-1606.6 1119.58,-1575.8 845.63,-1575.8"/>
<text text-anchor="start" x="852.63" y="-1588" font-family="Arial" font-size="14.00">walletId </text>
<text text-anchor="start" x="903.99" y="-1588" font-family="Arial" font-size="14.00" fill="#666666">[uuid]</text>
<polygon fill="none" stroke="black" points="845.63,-1545 845.63,-1575.8 1119.58,-1575.8 1119.58,-1545 845.63,-1545"/>
<text text-anchor="start" x="852.63" y="-1557.2" font-family="Arial" font-size="14.00">amount </text>
<text text-anchor="start" x="903.21" y="-1557.2" font-family="Arial" font-size="14.00" fill="#666666">[numeric(12,2)]</text>
<polygon fill="none" stroke="black" points="845.63,-1514.2 845.63,-1545 1119.58,-1545 1119.58,-1514.2 845.63,-1514.2"/>
<text text-anchor="start" x="852.63" y="-1526.4" font-family="Arial" font-size="14.00">type </text>
<text text-anchor="start" x="882.98" y="-1526.4" font-family="Arial" font-size="14.00" fill="#666666">[transactions_type_enum]</text>
<polygon fill="none" stroke="black" points="845.63,-1483.4 845.63,-1514.2 1119.58,-1514.2 1119.58,-1483.4 845.63,-1483.4"/>
<text text-anchor="start" x="852.63" y="-1495.6" font-family="Arial" font-size="14.00">status </text>
<text text-anchor="start" x="893.87" y="-1495.6" font-family="Arial" font-size="14.00" fill="#666666">[transactions_status_enum]</text>
<polygon fill="none" stroke="black" points="845.63,-1452.6 845.63,-1483.4 1119.58,-1483.4 1119.58,-1452.6 845.63,-1452.6"/>
<text text-anchor="start" x="852.63" y="-1464.8" font-family="Arial" font-size="14.00">description </text>
<text text-anchor="start" x="924.22" y="-1464.8" font-family="Arial" font-size="14.00" fill="#666666">[varchar(255)]</text>
<polygon fill="none" stroke="black" points="845.63,-1421.8 845.63,-1452.6 1119.58,-1452.6 1119.58,-1421.8 845.63,-1421.8"/>
<text text-anchor="start" x="852.63" y="-1434" font-family="Arial" font-size="14.00">reference </text>
<text text-anchor="start" x="915.66" y="-1434" font-family="Arial" font-size="14.00" fill="#666666">[varchar]</text>
<polygon fill="none" stroke="black" points="845.63,-1391 845.63,-1421.8 1119.58,-1421.8 1119.58,-1391 845.63,-1391"/>
<text text-anchor="start" x="852.63" y="-1403.2" font-family="Arial" font-size="14.00">createdAt </text>
<text text-anchor="start" x="916.44" y="-1403.2" font-family="Arial" font-size="14.00" fill="#666666">[timestamp without time zone]</text>
</g>
<!-- public.wallets -->
<g id="node6" class="node">
<title>public.wallets</title>
<polygon fill="#efefef" stroke="none" points="738.15,-1109.8 738.15,-1145.4 1005.06,-1145.4 1005.06,-1109.8 738.15,-1109.8"/>
<polygon fill="none" stroke="black" points="738.15,-1109.8 738.15,-1145.4 1005.06,-1145.4 1005.06,-1109.8 738.15,-1109.8"/>
<text text-anchor="start" x="759.12" y="-1123.2" font-family="Arial Bold" font-size="18.00">public.wallets</text>
<text text-anchor="start" x="859.6" y="-1123.2" font-family="Arial" font-size="14.00">    </text>
<text text-anchor="start" x="890.72" y="-1123.2" font-family="Arial" font-size="14.00" fill="#666666">[BASE TABLE]</text>
<polygon fill="none" stroke="black" points="738.15,-1079 738.15,-1109.8 1005.06,-1109.8 1005.06,-1079 738.15,-1079"/>
<text text-anchor="start" x="745.15" y="-1091.2" font-family="Arial" font-size="14.00">id </text>
<text text-anchor="start" x="759.94" y="-1091.2" font-family="Arial" font-size="14.00" fill="#666666">[uuid]</text>
<polygon fill="none" stroke="black" points="738.15,-1048.2 738.15,-1079 1005.06,-1079 1005.06,-1048.2 738.15,-1048.2"/>
<text text-anchor="start" x="745.15" y="-1060.4" font-family="Arial" font-size="14.00">userId </text>
<text text-anchor="start" x="787.95" y="-1060.4" font-family="Arial" font-size="14.00" fill="#666666">[uuid]</text>
<polygon fill="none" stroke="black" points="738.15,-1017.4 738.15,-1048.2 1005.06,-1048.2 1005.06,-1017.4 738.15,-1017.4"/>
<text text-anchor="start" x="745.15" y="-1029.6" font-family="Arial" font-size="14.00">balance </text>
<text text-anchor="start" x="798.08" y="-1029.6" font-family="Arial" font-size="14.00" fill="#666666">[numeric(12,2)]</text>
<polygon fill="none" stroke="black" points="738.15,-986.6 738.15,-1017.4 1005.06,-1017.4 1005.06,-986.6 738.15,-986.6"/>
<text text-anchor="start" x="745.15" y="-998.8" font-family="Arial" font-size="14.00">verificationAttempts </text>
<text text-anchor="start" x="871.2" y="-998.8" font-family="Arial" font-size="14.00" fill="#666666">[integer]</text>
<polygon fill="none" stroke="black" points="738.15,-955.8 738.15,-986.6 1005.06,-986.6 1005.06,-955.8 738.15,-955.8"/>
<text text-anchor="start" x="745.15" y="-968" font-family="Arial" font-size="14.00">bankName </text>
<text text-anchor="start" x="816.74" y="-968" font-family="Arial" font-size="14.00" fill="#666666">[varchar(100)]</text>
<polygon fill="none" stroke="black" points="738.15,-925 738.15,-955.8 1005.06,-955.8 1005.06,-925 738.15,-925"/>
<text text-anchor="start" x="745.15" y="-937.2" font-family="Arial" font-size="14.00">accountNumber </text>
<text text-anchor="start" x="847.87" y="-937.2" font-family="Arial" font-size="14.00" fill="#666666">[varchar(50)]</text>
<polygon fill="none" stroke="black" points="738.15,-894.2 738.15,-925 1005.06,-925 1005.06,-894.2 738.15,-894.2"/>
<text text-anchor="start" x="745.15" y="-906.4" font-family="Arial" font-size="14.00">accountName </text>
<text text-anchor="start" x="835.42" y="-906.4" font-family="Arial" font-size="14.00" fill="#666666">[varchar(150)]</text>
<polygon fill="none" stroke="black" points="738.15,-863.4 738.15,-894.2 1005.06,-894.2 1005.06,-863.4 738.15,-863.4"/>
<text text-anchor="start" x="745.15" y="-875.6" font-family="Arial" font-size="14.00">isBankVerified </text>
<text text-anchor="start" x="838.53" y="-875.6" font-family="Arial" font-size="14.00" fill="#666666">[boolean]</text>
<polygon fill="none" stroke="black" points="738.15,-832.6 738.15,-863.4 1005.06,-863.4 1005.06,-832.6 738.15,-832.6"/>
<text text-anchor="start" x="745.15" y="-844.8" font-family="Arial" font-size="14.00">gatewayBankToken </text>
<text text-anchor="start" x="872" y="-844.8" font-family="Arial" font-size="14.00" fill="#666666">[varchar(100)]</text>
<polygon fill="none" stroke="black" points="738.15,-801.8 738.15,-832.6 1005.06,-832.6 1005.06,-801.8 738.15,-801.8"/>
<text text-anchor="start" x="745.15" y="-814" font-family="Arial" font-size="14.00">microDeposits </text>
<text text-anchor="start" x="837.73" y="-814" font-family="Arial" font-size="14.00" fill="#666666">[text]</text>
<polygon fill="none" stroke="black" points="738.15,-771 738.15,-801.8 1005.06,-801.8 1005.06,-771 738.15,-771"/>
<text text-anchor="start" x="745.15" y="-783.2" font-family="Arial" font-size="14.00">pendingBalance </text>
<text text-anchor="start" x="849.46" y="-783.2" font-family="Arial" font-size="14.00" fill="#666666">[numeric(12,2)]</text>
<polygon fill="none" stroke="black" points="738.15,-740.2 738.15,-771 1005.06,-771 1005.06,-740.2 738.15,-740.2"/>
<text text-anchor="start" x="745.15" y="-752.4" font-family="Arial" font-size="14.00">updatedAt </text>
<text text-anchor="start" x="812.87" y="-752.4" font-family="Arial" font-size="14.00" fill="#666666">[timestamp without time zone]</text>
</g>
<!-- public.transactions&#45;&gt;public.wallets -->
<g id="edge6" class="edge">
<title>public.transactions:walletId&#45;&gt;public.wallets:id</title>
<path fill="none" stroke="black" d="M834.99,-1588.74C795.03,-1566.14 826.19,-1394.41 845.63,-1347.8 884.17,-1255.38 966.21,-1280.9 1005.06,-1188.6 1021.3,-1150.01 1047.93,-1094.4 1006.06,-1094.4"/>
<polygon fill="black" stroke="black" points="834.61,-1588.64 843.19,-1595.48 839.78,-1589.96 843.98,-1591.03 843.98,-1591.03 843.98,-1591.03 839.78,-1589.96 845.42,-1586.76 834.61,-1588.64"/>
<text text-anchor="start" x="851.63" y="-1601.2" font-family="Arial" font-size="10.00">FOREIGN KEY (&quot;walletId&quot;) REFERENCES wallets(id) ON DELETE RESTRICT</text>
</g>
<!-- public.wallets&#45;&gt;public.users -->
<g id="edge7" class="edge">
<title>public.wallets:userId&#45;&gt;public.users:id</title>
<path fill="none" stroke="black" d="M727.03,-1061.91C661.33,-1038.21 720.39,-772.75 738.15,-697 754.41,-627.63 792.47,-622.5 809.01,-553.2 818.73,-512.47 851.88,-459 810.01,-459"/>
<polygon fill="black" stroke="black" points="726.96,-1061.89 736.08,-1067.98 732.22,-1062.77 736.49,-1063.49 736.49,-1063.49 736.49,-1063.49 732.22,-1062.77 737.56,-1059.11 726.96,-1061.89"/>
<text text-anchor="start" x="656.64" y="-1047.6" font-family="Arial" font-size="10.00">FOREIGN KEY (&quot;userId&quot;) REFERENCES users(id) ON DELETE CASCADE</text>
</g>
<!-- public.log_activities -->
<g id="node7" class="node">
<title>public.log_activities</title>
<polygon fill="#efefef" stroke="none" points="1224.13,-1622 1224.13,-1657.6 1509.08,-1657.6 1509.08,-1622 1224.13,-1622"/>
<polygon fill="none" stroke="black" points="1224.13,-1622 1224.13,-1657.6 1509.08,-1657.6 1509.08,-1622 1224.13,-1622"/>
<text text-anchor="start" x="1231.13" y="-1635.4" font-family="Arial Bold" font-size="18.00">public.log_activities</text>
<text text-anchor="start" x="1377.6" y="-1635.4" font-family="Arial" font-size="14.00">    </text>
<text text-anchor="start" x="1408.71" y="-1635.4" font-family="Arial" font-size="14.00" fill="#666666">[BASE TABLE]</text>
<polygon fill="none" stroke="black" points="1224.13,-1591.2 1224.13,-1622 1509.08,-1622 1509.08,-1591.2 1224.13,-1591.2"/>
<text text-anchor="start" x="1231.13" y="-1603.4" font-family="Arial" font-size="14.00">id </text>
<text text-anchor="start" x="1245.91" y="-1603.4" font-family="Arial" font-size="14.00" fill="#666666">[uuid]</text>
<polygon fill="none" stroke="black" points="1224.13,-1560.4 1224.13,-1591.2 1509.08,-1591.2 1509.08,-1560.4 1224.13,-1560.4"/>
<text text-anchor="start" x="1231.13" y="-1572.6" font-family="Arial" font-size="14.00">action </text>
<text text-anchor="start" x="1272.37" y="-1572.6" font-family="Arial" font-size="14.00" fill="#666666">[varchar(255)]</text>
<polygon fill="none" stroke="black" points="1224.13,-1529.6 1224.13,-1560.4 1509.08,-1560.4 1509.08,-1529.6 1224.13,-1529.6"/>
<text text-anchor="start" x="1231.13" y="-1541.8" font-family="Arial" font-size="14.00">userId </text>
<text text-anchor="start" x="1273.93" y="-1541.8" font-family="Arial" font-size="14.00" fill="#666666">[uuid]</text>
<polygon fill="none" stroke="black" points="1224.13,-1498.8 1224.13,-1529.6 1509.08,-1529.6 1509.08,-1498.8 1224.13,-1498.8"/>
<text text-anchor="start" x="1231.13" y="-1511" font-family="Arial" font-size="14.00">ipAddress </text>
<text text-anchor="start" x="1297.27" y="-1511" font-family="Arial" font-size="14.00" fill="#666666">[varchar(45)]</text>
<polygon fill="none" stroke="black" points="1224.13,-1468 1224.13,-1498.8 1509.08,-1498.8 1509.08,-1468 1224.13,-1468"/>
<text text-anchor="start" x="1231.13" y="-1480.2" font-family="Arial" font-size="14.00">metaData </text>
<text text-anchor="start" x="1295.71" y="-1480.2" font-family="Arial" font-size="14.00" fill="#666666">[jsonb]</text>
<polygon fill="none" stroke="black" points="1224.13,-1437.2 1224.13,-1468 1509.08,-1468 1509.08,-1437.2 1224.13,-1437.2"/>
<text text-anchor="start" x="1231.13" y="-1449.4" font-family="Arial" font-size="14.00">reference </text>
<text text-anchor="start" x="1294.16" y="-1449.4" font-family="Arial" font-size="14.00" fill="#666666">[varchar]</text>
<polygon fill="none" stroke="black" points="1224.13,-1406.4 1224.13,-1437.2 1509.08,-1437.2 1509.08,-1406.4 1224.13,-1406.4"/>
<text text-anchor="start" x="1231.13" y="-1418.6" font-family="Arial" font-size="14.00">createdAt </text>
<text text-anchor="start" x="1294.94" y="-1418.6" font-family="Arial" font-size="14.00" fill="#666666">[timestamp without time zone]</text>
</g>
<!-- public.audit_logs -->
<g id="node8" class="node">
<title>public.audit_logs</title>
<polygon fill="#efefef" stroke="none" points="1109.11,-1032.8 1109.11,-1068.4 1372.1,-1068.4 1372.1,-1032.8 1109.11,-1032.8"/>
<polygon fill="none" stroke="black" points="1109.11,-1032.8 1109.11,-1068.4 1372.1,-1068.4 1372.1,-1032.8 1109.11,-1032.8"/>
<text text-anchor="start" x="1116.12" y="-1046.2" font-family="Arial Bold" font-size="18.00">public.audit_logs</text>
<text text-anchor="start" x="1240.6" y="-1046.2" font-family="Arial" font-size="14.00">    </text>
<text text-anchor="start" x="1271.72" y="-1046.2" font-family="Arial" font-size="14.00" fill="#666666">[BASE TABLE]</text>
<polygon fill="none" stroke="black" points="1109.11,-1002 1109.11,-1032.8 1372.1,-1032.8 1372.1,-1002 1109.11,-1002"/>
<text text-anchor="start" x="1116.11" y="-1014.2" font-family="Arial" font-size="14.00">id </text>
<text text-anchor="start" x="1130.89" y="-1014.2" font-family="Arial" font-size="14.00" fill="#666666">[uuid]</text>
<polygon fill="none" stroke="black" points="1109.11,-971.2 1109.11,-1002 1372.1,-1002 1372.1,-971.2 1109.11,-971.2"/>
<text text-anchor="start" x="1116.11" y="-983.4" font-family="Arial" font-size="14.00">adminId </text>
<text text-anchor="start" x="1169.8" y="-983.4" font-family="Arial" font-size="14.00" fill="#666666">[uuid]</text>
<polygon fill="none" stroke="black" points="1109.11,-940.4 1109.11,-971.2 1372.1,-971.2 1372.1,-940.4 1109.11,-940.4"/>
<text text-anchor="start" x="1116.11" y="-952.6" font-family="Arial" font-size="14.00">action </text>
<text text-anchor="start" x="1157.35" y="-952.6" font-family="Arial" font-size="14.00" fill="#666666">[varchar(100)]</text>
<polygon fill="none" stroke="black" points="1109.11,-909.6 1109.11,-940.4 1372.1,-940.4 1372.1,-909.6 1109.11,-909.6"/>
<text text-anchor="start" x="1116.11" y="-921.8" font-family="Arial" font-size="14.00">targetEntityId </text>
<text text-anchor="start" x="1202.48" y="-921.8" font-family="Arial" font-size="14.00" fill="#666666">[uuid]</text>
<polygon fill="none" stroke="black" points="1109.11,-878.8 1109.11,-909.6 1372.1,-909.6 1372.1,-878.8 1109.11,-878.8"/>
<text text-anchor="start" x="1116.11" y="-891" font-family="Arial" font-size="14.00">details </text>
<text text-anchor="start" x="1160.46" y="-891" font-family="Arial" font-size="14.00" fill="#666666">[jsonb]</text>
<polygon fill="none" stroke="black" points="1109.11,-848 1109.11,-878.8 1372.1,-878.8 1372.1,-848 1109.11,-848"/>
<text text-anchor="start" x="1116.11" y="-860.2" font-family="Arial" font-size="14.00">ipAddress </text>
<text text-anchor="start" x="1182.25" y="-860.2" font-family="Arial" font-size="14.00" fill="#666666">[varchar]</text>
<polygon fill="none" stroke="black" points="1109.11,-817.2 1109.11,-848 1372.1,-848 1372.1,-817.2 1109.11,-817.2"/>
<text text-anchor="start" x="1116.11" y="-829.4" font-family="Arial" font-size="14.00">createdAt </text>
<text text-anchor="start" x="1179.92" y="-829.4" font-family="Arial" font-size="14.00" fill="#666666">[timestamp without time zone]</text>
</g>
<!-- public.audit_logs&#45;&gt;public.users -->
<g id="edge8" class="edge">
<title>public.audit_logs:adminId&#45;&gt;public.users:id</title>
<path fill="none" stroke="black" d="M1098.03,-985C1026.17,-960.42 1106.27,-659.34 1057.6,-589.2 986.73,-487.05 934.34,-459 810.01,-459"/>
<polygon fill="black" stroke="black" points="1097.9,-984.98 1107.07,-990.99 1103.17,-985.82 1107.44,-986.5 1107.44,-986.5 1107.44,-986.5 1103.17,-985.82 1108.48,-982.1 1097.9,-984.98"/>
<text text-anchor="start" x="1115.11" y="-996.6" font-family="Arial" font-size="10.00">FOREIGN KEY (&quot;adminId&quot;) REFERENCES users(id)</text>
</g>
</g>
</svg>
